<svg width="13" height="13" viewBox="0 0 13 13" fill="none" xmlns="http://www.w3.org/2000/svg">
<path d="M7.9399 5.99999L12.7999 1.13999C12.9091 1.01246 12.9662 0.848406 12.9597 0.680622C12.9532 0.512838 12.8837 0.353679 12.7649 0.234949C12.6462 0.116219 12.4871 0.0466642 12.3193 0.0401834C12.1515 0.0337026 11.9874 0.0907736 11.8599 0.199991L6.9999 5.05999L2.1399 0.193324C2.01237 0.0841068 1.84832 0.0270364 1.68053 0.0335172C1.51275 0.039998 1.35359 0.109553 1.23486 0.228282C1.11613 0.347012 1.04657 0.506171 1.04009 0.673955C1.03361 0.841739 1.09068 1.00579 1.1999 1.13332L6.0599 5.99999L1.19323 10.86C1.12345 10.9198 1.06677 10.9933 1.02675 11.076C0.986735 11.1587 0.964248 11.2488 0.960702 11.3406C0.957156 11.4324 0.972626 11.524 1.00614 11.6095C1.03966 11.6951 1.0905 11.7728 1.15547 11.8378C1.22044 11.9027 1.29814 11.9536 1.38369 11.9871C1.46924 12.0206 1.56079 12.0361 1.6526 12.0325C1.74442 12.029 1.8345 12.0065 1.91721 11.9665C1.99992 11.9265 2.07347 11.8698 2.13323 11.8L6.9999 6.93999L11.8599 11.8C11.9874 11.9092 12.1515 11.9663 12.3193 11.9598C12.4871 11.9533 12.6462 11.8838 12.7649 11.765C12.8837 11.6463 12.9532 11.4871 12.9597 11.3194C12.9662 11.1516 12.9091 10.9875 12.7999 10.86L7.9399 5.99999Z" fill="#333333"/>
</svg>
