<svg width="24" height="24" viewBox="0 0 24 24" fill="none" xmlns="http://www.w3.org/2000/svg">
<g opacity="0.4">
<path d="M11.9061 14.625C12.6023 14.625 13.27 14.3484 13.7623 13.8561C14.2546 13.3639 14.5311 12.6962 14.5311 12C14.5311 11.9231 14.5276 11.8469 14.5211 11.7717L11.6779 14.6149C11.7531 14.6215 11.829 14.625 11.9061 14.625ZM20.5949 3.88031L19.5936 2.87999C19.5585 2.84486 19.5108 2.82512 19.4611 2.82512C19.4114 2.82512 19.3637 2.84486 19.3286 2.87999L16.7664 5.44288C15.3529 4.72054 13.7641 4.35937 11.9999 4.35937C7.4952 4.35937 4.13427 6.70546 1.91708 11.3976C1.82796 11.5864 1.78174 11.7925 1.78174 12.0012C1.78174 12.2099 1.82796 12.416 1.91708 12.6047C2.80302 14.4708 3.86981 15.9665 5.11747 17.0918L2.63802 19.5703C2.60288 19.6055 2.58314 19.6531 2.58314 19.7028C2.58314 19.7526 2.60288 19.8002 2.63802 19.8354L3.63856 20.8359C3.67372 20.8711 3.7214 20.8908 3.7711 20.8908C3.82081 20.8908 3.86848 20.8711 3.90364 20.8359L20.5949 4.14562C20.6123 4.1282 20.6262 4.10753 20.6356 4.08476C20.645 4.062 20.6499 4.0376 20.6499 4.01296C20.6499 3.98832 20.645 3.96392 20.6356 3.94116C20.6262 3.9184 20.6123 3.89772 20.5949 3.88031ZM7.78114 12C7.78108 11.2875 7.96556 10.5872 8.31661 9.96715C8.66767 9.34716 9.17333 8.82866 9.78433 8.46217C10.3953 8.09568 11.0908 7.8937 11.8031 7.8759C12.5154 7.85811 13.2201 8.0251 13.8486 8.36062L12.7091 9.50015C12.2495 9.353 11.7583 9.33528 11.2894 9.44893C10.8204 9.56258 10.3918 9.80321 10.0506 10.1444C9.70936 10.4856 9.46873 10.9142 9.35508 11.3832C9.24142 11.8522 9.25915 12.3434 9.4063 12.803L8.26677 13.9425C7.94699 13.345 7.78014 12.6777 7.78114 12Z" fill="#333333"/>
<path d="M22.0828 11.3953C21.2578 9.65782 20.2759 8.24102 19.1369 7.14493L15.7587 10.5234C16.0434 11.2679 16.1066 12.0788 15.9404 12.8583C15.7742 13.6378 15.3859 14.3525 14.8223 14.9161C14.2588 15.4797 13.544 15.868 12.7645 16.0342C11.985 16.2003 11.1741 16.1372 10.4297 15.8524L7.56421 18.7179C8.89358 19.3331 10.3722 19.6406 12 19.6406C16.5047 19.6406 19.8656 17.2945 22.0828 12.6024C22.1719 12.4136 22.2182 12.2075 22.2182 11.9988C22.2182 11.7901 22.1719 11.584 22.0828 11.3953Z" fill="#333333"/>
</g>
</svg>
