<svg width="24" height="25" viewBox="0 0 24 25" fill="none" xmlns="http://www.w3.org/2000/svg">
<g opacity="0.8" clip-path="url(#clip0_1_1715)">
<path d="M12.0095 0.5C12.357 0.5 12.7045 0.5 13.053 0.5C13.5299 0.509376 13.8106 0.769823 13.8398 1.22925C13.869 1.68868 13.9013 2.1356 13.5779 2.56586C13.2993 2.9357 13.4735 3.35241 13.7793 3.69203C14.42 4.39941 15.0398 5.12761 15.693 5.82353C15.953 6.09268 16.1564 6.4111 16.2912 6.76001C16.426 7.10892 16.4894 7.48124 16.4777 7.85501C16.4652 9.98963 16.4714 12.1263 16.4777 14.2578C16.4789 14.7445 16.3816 15.2264 16.1918 15.6747C15.5135 17.2915 15.502 18.9167 16.1918 20.5304C16.5685 21.4159 16.5309 22.3327 16.4276 23.2391C16.3922 23.5736 16.2327 23.8828 15.9805 24.1058C15.7284 24.3289 15.4017 24.4497 15.0648 24.4444C14.156 24.4569 13.2241 24.6121 12.3716 24.085C12.0773 23.9037 11.7288 23.9944 11.4231 24.16C10.5236 24.6486 9.5563 24.5017 8.6203 24.3819C7.95665 24.3027 7.54656 23.7318 7.52048 23.0474C7.48396 22.0764 7.52048 21.1336 7.90657 20.1918C8.469 18.8115 8.43457 17.3655 7.89509 15.9726C7.62806 15.2954 7.49517 14.573 7.50378 13.8453C7.52604 11.8506 7.52604 9.85524 7.50378 7.85918C7.49106 7.48643 7.5536 7.11493 7.6877 6.76681C7.82179 6.4187 8.02469 6.10109 8.2843 5.8329C8.93543 5.13387 9.56152 4.41295 10.1949 3.69828C10.5998 3.2399 10.6008 2.92215 10.2993 2.40334C10.0186 1.92516 10.0593 1.39906 10.2408 0.900046C10.3452 0.618764 10.6144 0.504167 10.918 0.503125L12.0095 0.5ZM8.33856 21.1013C8.5337 21.1149 8.6683 21.1295 8.80291 21.1336C9.0617 21.142 9.32465 21.1711 9.31213 21.5076C9.30274 21.8035 9.05648 21.8837 8.82274 21.841C8.21857 21.7306 8.16535 22.0681 8.21126 22.5234C8.23004 22.7119 8.21126 22.9057 8.23526 23.0943C8.27074 23.3974 8.45022 23.6704 8.73196 23.6964C9.51874 23.7673 10.3295 23.9339 11.0819 23.5433C11.5921 23.2787 12.1389 23.1464 12.6273 23.4328C13.3994 23.885 14.2113 23.7454 15.0158 23.7454C15.4833 23.7454 15.7358 23.4422 15.7681 22.9776C15.7827 22.7536 15.7504 22.5244 15.7775 22.3015C15.8245 21.9285 15.6732 21.8379 15.3132 21.842C13.8523 21.8618 12.3914 21.8504 10.9306 21.8504C10.7914 21.8546 10.652 21.8515 10.5132 21.841C10.2982 21.8181 10.1459 21.6993 10.1511 21.4753C10.1511 21.2774 10.3013 21.169 10.4944 21.1472C10.6332 21.136 10.7725 21.1322 10.9118 21.1357C12.3372 21.1357 13.7626 21.1274 15.19 21.1357C15.5354 21.1357 15.6544 21.0919 15.5031 20.7096C14.7862 18.8969 14.8196 17.0863 15.5834 15.2923C15.6452 15.1491 15.6971 15.0019 15.7389 14.8516C15.8328 14.4995 15.7629 14.3308 15.3215 14.3308C13.2001 14.3537 11.0798 14.3412 8.9563 14.3412C8.12152 14.3412 8.05787 14.437 8.36256 15.2184C8.38135 15.2663 8.40535 15.3132 8.42726 15.36C8.86448 16.3289 9.01265 17.3499 8.98135 18.4052C8.94562 19.3372 8.72724 20.2532 8.33856 21.1013ZM15.6429 11.1762L15.7619 11.1137C15.7619 10.5157 15.7619 9.91671 15.7619 9.31872C15.7619 9.08224 15.5949 9.09786 15.4394 9.08432C15.2067 9.06453 15.022 8.97077 15.0387 8.70719C15.0523 8.47487 15.2307 8.39466 15.4405 8.38111C15.596 8.36965 15.765 8.38111 15.7619 8.14775C15.7556 7.71645 15.8078 7.28203 15.5887 6.87573C15.4655 6.64654 15.3487 6.54236 15.0669 6.65904C14.7385 6.80389 14.3781 6.86167 14.0208 6.82682C13.6634 6.79196 13.3211 6.66564 13.0269 6.46006C12.3205 5.98709 11.6495 5.98501 10.9473 6.46006C10.3838 6.8424 9.75248 6.91011 9.09926 6.73717C8.52013 6.58507 8.35004 6.67883 8.24778 7.27161C8.2123 7.47997 8.23422 7.68833 8.20604 7.89668C8.15074 8.29777 8.33022 8.39362 8.709 8.38945C10.2742 8.37174 11.8394 8.38111 13.4047 8.38216C13.5606 8.3785 13.7167 8.38371 13.8721 8.39778C14.0652 8.41966 14.1998 8.5228 14.2029 8.73115C14.2056 8.77499 14.1993 8.81891 14.1845 8.86025C14.1697 8.9016 14.1466 8.9395 14.1166 8.97165C14.0866 9.00381 14.0504 9.02954 14.0102 9.0473C13.97 9.06505 13.9266 9.07446 13.8826 9.07494C13.7272 9.08992 13.5711 9.09548 13.4151 9.09161C11.8687 9.09161 10.3222 9.11141 8.77683 9.08119C8.29996 9.06765 8.18413 9.21871 8.19874 9.66772C8.23109 10.6553 8.20604 11.6471 8.2123 12.6337C8.2123 12.7775 8.15283 12.9462 8.32396 13.0994C8.88639 12.6118 9.44674 12.1274 10.0029 11.6409C10.3055 11.3742 10.6989 11.1304 11.0401 11.3346C11.6662 11.7065 11.9375 11.3044 12.2798 10.9512C12.5208 10.7022 12.7608 10.4511 13.0165 10.2157C13.58 9.69481 14.1643 9.69481 14.7236 10.2157C15.046 10.522 15.3403 10.8554 15.6429 11.1762ZM14.8613 5.97459C14.2979 5.3391 13.7813 4.75882 13.2669 4.17542C13.0718 3.95456 12.8224 3.72329 12.8318 3.42742C12.8547 2.65337 12.3758 2.65337 11.8311 2.70546C11.7443 2.7138 11.657 2.7138 11.5702 2.70546C11.3375 2.68567 11.2102 2.77005 11.2144 3.018C11.2227 3.52118 10.9619 3.90143 10.6405 4.25668C10.1354 4.81612 9.63978 5.38389 9.11804 5.9725C9.66796 6.21941 10.1323 6.15586 10.5601 5.86833C11.517 5.21825 12.4603 5.22033 13.4172 5.86833C13.846 6.16315 14.3093 6.22357 14.8613 5.97459ZM14.5107 13.6265C14.901 13.6265 15.1786 13.6265 15.4561 13.6265C15.5605 13.6265 15.6648 13.6421 15.74 13.5421C15.8443 13.3952 15.7493 12.2347 15.6085 12.093C15.1462 11.6242 14.6777 11.1616 14.2113 10.698C14.0328 10.5199 13.8231 10.4293 13.6165 10.6241C13.1636 11.0533 12.7285 11.5002 12.286 11.9388C12.1817 12.043 12.1535 12.1545 12.2725 12.2514C12.9873 12.8295 13.3817 13.9536 14.5107 13.6265ZM8.84883 13.5796H12.5354C12.0189 13.0504 11.5504 12.5545 11.061 12.0805C10.9076 11.9315 10.6979 11.9763 10.5393 12.1138C10.0019 12.5764 9.47074 13.0431 8.84883 13.5838V13.5796ZM12.0012 1.98975C12.2777 1.98975 12.5542 1.97725 12.8307 1.98975C13.1438 2.00642 13.1438 1.81994 13.149 1.59179C13.1542 1.36364 13.1167 1.19279 12.8193 1.20112C12.3038 1.21779 11.782 1.21883 11.2603 1.20216C10.9587 1.19279 10.8304 1.27821 10.8273 1.60742C10.8273 1.95433 10.988 2.00955 11.2718 1.99392C11.516 1.97934 11.7591 1.9908 12.0012 1.98975Z" fill="#FA8B02" stroke="#FA8B02" stroke-width="0.2"/>
</g>
<defs>
<clipPath id="clip0_1_1715">
<rect width="24" height="24" fill="white" transform="translate(0 0.5)"/>
</clipPath>
</defs>
</svg>
