<svg width="24" height="25" viewBox="0 0 24 25" fill="none" xmlns="http://www.w3.org/2000/svg">
<g opacity="0.8" clip-path="url(#clip0_1_1757)">
<mask id="path-1-outside-1_1_1757" maskUnits="userSpaceOnUse" x="-1.00964" y="-0.5" width="26" height="26" fill="black">
<rect fill="white" x="-1.00964" y="-0.5" width="26" height="26"/>
<path d="M10.4728 15.9344C10.1861 17.1722 9.59741 17.991 8.56781 18.4391C6.85575 19.1846 4.90759 18.2474 4.37932 16.4063C4.27905 16.0583 4.14752 15.9226 3.79929 15.9635C3.61975 15.9738 3.43977 15.9738 3.26023 15.9635C2.21445 15.9635 1.51691 16.5345 1.36166 17.5568C1.1924 18.674 1.06302 19.7976 0.893759 20.9158C0.83554 21.2994 0.948743 21.4092 1.33579 21.4114C2.71147 21.4114 2.71578 21.4308 2.71362 20.0497C2.71362 19.7136 2.66187 19.3882 3.18692 19.4583C3.41656 19.4895 3.4931 19.5552 3.49202 19.7814C3.48448 21.2358 3.48017 22.6901 3.49202 24.1434C3.49202 24.458 3.3454 24.4849 3.09743 24.4881C2.84947 24.4914 2.69853 24.4343 2.70931 24.1337C2.72764 23.5951 2.70931 23.0564 2.71794 22.5178C2.72333 22.2625 2.63061 22.1881 2.37725 22.172C1.14496 22.0955 1.14604 22.0879 1.14604 23.2988C1.14604 23.5498 1.13741 23.8008 1.14604 24.0529C1.15466 24.305 1.13418 24.4957 0.783791 24.4935C0.452808 24.4935 0.340684 24.3858 0.36009 24.0572C0.383808 23.6457 0.367637 23.232 0.36009 22.8194C0.36009 22.5242 0.426933 22.2215 0.0948727 22.0114C-0.0625326 21.9102 -0.00215799 21.6796 0.0226387 21.503C0.212388 20.1337 0.396746 18.7645 0.599432 17.3985C0.809665 15.9829 2.07322 15.0564 3.27317 15.1782C3.86074 15.2374 4.4591 15.1782 5.05098 15.1932C5.32806 15.2008 5.41647 15.1157 5.42509 14.8291C5.43911 14.2765 5.39275 13.8369 4.84291 13.4674C4.12488 12.9837 3.73245 12.2102 3.57181 11.3484C3.52221 11.0887 3.43704 10.9552 3.14056 10.9293C2.88729 10.9149 2.64447 10.8235 2.44464 10.6674C2.24482 10.5112 2.09754 10.2978 2.02255 10.0556C1.83603 9.51697 1.93199 9.01387 2.35461 8.62173C2.43507 8.55314 2.49469 8.46339 2.5267 8.36266C2.55872 8.26193 2.56184 8.15426 2.53573 8.05184C2.4635 7.57245 2.41498 7.0909 2.34598 6.6115C1.99452 4.18758 3.91573 2.6255 5.65689 2.79249C6.63798 2.88513 7.63308 2.71815 8.61417 2.88729C9.33543 3.01225 10.0006 3.19647 10.0826 4.10463C10.102 4.32009 10.3122 4.34056 10.4944 4.37503C11.5316 4.57218 12.0038 5.14315 12.0038 6.20644C12.0038 6.6018 12.0038 6.99609 12.0038 7.39146C12.0038 7.89779 11.9951 8.3341 12.4501 8.77794C13.18 9.49111 12.6787 10.7322 11.648 10.9175C11.3008 10.9789 11.1941 11.1092 11.1186 11.4378C10.9163 12.3417 10.3897 13.1403 9.63838 13.6829C9.36562 13.8854 9.15969 14.8108 9.31494 15.0909C9.33772 15.1292 9.37183 15.1595 9.41257 15.1777C9.45332 15.1958 9.49868 15.2009 9.54243 15.1922C10.0028 15.1738 10.5041 15.343 10.8146 14.7806C10.9429 14.5501 11.2459 14.4305 11.5208 14.4499C11.8722 14.4736 11.938 14.2786 11.9779 14.0082C12.0857 13.2455 12.2313 12.486 12.3164 11.72C12.3682 11.26 12.5461 10.9821 12.9956 10.8043C13.8581 10.4618 14.7045 10.0502 15.5594 9.67856C15.9572 9.50404 16.0004 9.31336 15.6467 9.03218C14.9996 8.53239 14.5572 7.81376 14.4026 7.01118C14.3573 6.77417 14.2581 6.70522 14.0199 6.67291C13.2652 6.56518 12.7789 6.03515 12.7682 5.35753C12.7574 4.67991 13.2415 4.10894 13.98 4.00768C14.257 3.96997 14.3196 3.87301 14.3551 3.61877C14.6182 1.74535 16.0187 0.5 17.8245 0.5C19.6304 0.5 21.0255 1.75613 21.2745 3.62416C21.3112 3.89779 21.3985 3.96027 21.6583 3.9969C22.3958 4.10463 22.8777 4.67237 22.8615 5.35537C22.857 5.6826 22.7315 5.99659 22.5092 6.23687C22.2868 6.47715 21.9834 6.62671 21.6572 6.65675C21.3726 6.69122 21.2573 6.78171 21.2066 7.05535C21.061 7.84824 20.6255 8.47091 20.0261 8.99448C19.625 9.3446 19.6455 9.4728 20.1457 9.70011C21.0082 10.0933 21.8783 10.4887 22.7548 10.8571C22.898 10.9054 23.0239 10.9946 23.1169 11.1137C23.2098 11.2329 23.2657 11.3766 23.2777 11.5272C23.4998 13.0354 23.7412 14.5436 23.9741 16.0518C24.0129 16.3039 24.0507 16.5571 23.7757 16.7198C23.5774 16.8383 23.6464 17.043 23.6453 17.2089C23.6399 18.2678 23.6453 19.3268 23.6453 20.3858C23.6453 21.6312 23.1483 22.3799 21.999 22.8227C21.7661 22.9121 21.6939 23.0219 21.7047 23.2536C21.7176 23.5218 21.6896 23.7922 21.7122 24.0605C21.7381 24.3837 21.6357 24.5032 21.2961 24.5022C20.9565 24.5011 20.9252 24.3363 20.9284 24.0712C20.9371 23.1922 20.9187 22.312 20.9381 21.4329C20.9457 21.1033 20.8422 21.002 20.5069 21.002C18.6748 21.0157 16.842 21.0157 15.0085 21.002C14.6419 21.002 14.5772 21.1162 14.6656 21.4394C14.7357 21.7023 14.7605 21.9781 14.4673 22.1558C14.2915 22.2635 14.3422 22.4402 14.3411 22.5943C14.3347 23.0974 14.3239 23.6005 14.3411 24.1025C14.353 24.416 14.2225 24.4968 13.9293 24.5C13.6059 24.5 13.5282 24.3729 13.5379 24.0809C13.5541 23.5789 13.5261 23.0758 13.5466 22.5727C13.5606 22.2614 13.4387 22.186 13.1433 22.1795C12.0049 22.1547 12.0048 22.144 12.0048 23.2794C12.0048 23.5304 11.9951 23.7825 12.0048 24.0335C12.0189 24.3104 12.0049 24.5054 11.6254 24.5054C11.2459 24.5054 11.2308 24.3319 11.2318 24.0443C11.2415 22.6621 11.2459 21.2789 11.2318 19.8967C11.2318 19.5735 11.3181 19.4658 11.6534 19.4658C12.0081 19.4658 12.0264 19.6457 12.0059 19.9032C11.9995 19.9749 11.9995 20.047 12.0059 20.1186C12.0534 20.5377 11.7979 21.1572 12.1202 21.3317C12.5126 21.5471 13.097 21.3985 13.5983 21.4103C13.8333 21.4168 13.8581 21.2746 13.8312 21.0871C13.6479 19.8267 13.4776 18.5641 13.2716 17.3069C13.2037 16.8954 13.0345 16.6282 12.4695 16.723C11.7515 16.8426 10.9709 16.8867 10.4728 15.9344ZM13.9455 16.6885C13.9455 15.636 13.9455 14.6955 13.9455 13.755C13.9455 13.4868 13.8851 13.2369 14.3314 13.239C14.7778 13.2412 14.7088 13.5051 14.7088 13.7647C14.7088 15.7567 14.7206 17.7507 14.7001 19.7405C14.7001 20.1391 14.7961 20.2587 15.2058 20.2533C16.9308 20.2296 18.6558 20.2264 20.3808 20.2533C20.8411 20.2608 20.9457 20.1176 20.9403 19.6791C20.9177 17.6699 20.9403 15.6597 20.9252 13.6462C20.9252 13.3489 21.0104 13.2412 21.3209 13.2412C21.6314 13.2412 21.7241 13.3489 21.7112 13.6495C21.6917 14.0966 21.7112 14.5458 21.7112 14.995C21.7112 15.9861 21.7112 15.9646 22.7138 15.9646C23.0804 15.9646 23.1742 15.8569 23.1159 15.4992C22.9204 14.3142 22.7408 13.1259 22.5769 11.9344C22.5391 11.6619 22.3979 11.5304 22.1672 11.4302C21.4416 11.1168 20.7193 10.7989 20.0023 10.4682C19.7867 10.368 19.6854 10.3788 19.5474 10.6115C18.6752 12.0917 16.9599 12.0982 16.1103 10.6266C15.9831 10.4047 15.8947 10.3529 15.6618 10.4607C14.9298 10.8011 14.1891 11.1254 13.4495 11.4496C13.2576 11.5347 13.1261 11.6382 13.0948 11.8719C12.9956 12.6002 12.8792 13.3263 12.7563 14.0502C12.7132 14.3023 12.7218 14.4704 12.9967 14.6104C13.1941 14.704 13.3544 14.861 13.4521 15.0562C13.5498 15.2515 13.5793 15.4738 13.5358 15.6877C13.4635 16.0928 13.6522 16.3363 13.9455 16.6885ZM11.2405 8.00013C11.2405 7.36345 11.2405 6.79141 11.2405 6.21936C11.234 5.51697 11.0076 5.2498 10.3144 5.14853C9.8195 5.07635 9.42383 4.82534 9.35915 4.34271C9.29446 3.86009 9.00552 3.73189 8.61093 3.6694C7.57594 3.49704 6.53232 3.59507 5.49409 3.58322C4.27474 3.56814 3.31414 4.37827 3.12654 5.57299C2.9907 6.45314 3.24945 7.29666 3.34217 8.22744C3.83379 7.69849 4.46449 7.73943 5.00462 7.54228C5.33884 7.41947 5.61268 7.45825 5.87682 7.73404C6.20026 8.07339 6.63151 8.2059 7.09618 8.22206C7.40295 8.23851 7.70916 8.18058 7.98869 8.05321C8.26822 7.92584 8.51277 7.73281 8.70149 7.49057C9.04865 7.05966 9.39904 7.01549 9.86371 7.29989C10.2755 7.5509 10.723 7.74051 11.2405 8.00013ZM10.4642 9.92957C10.4642 9.45664 10.4642 9.11621 10.4642 8.77471C10.4707 8.23606 9.95535 8.30393 9.68043 8.09386C9.50901 7.96243 9.35699 7.9732 9.15969 8.13264C7.79372 9.25411 7.02071 9.30259 5.45744 8.40304C4.96905 8.12187 4.25102 8.50216 4.24994 9.04296C4.24994 9.56329 4.24024 10.0836 4.24994 10.604C4.2662 11.2731 4.49599 11.9195 4.90579 12.449C5.31559 12.9784 5.88397 13.3632 6.52801 13.5471C7.82175 13.9102 9.18773 13.3758 9.95535 12.2285C10.4577 11.4809 10.4933 10.6492 10.4642 9.92957ZM20.5188 5.18193C20.5188 4.78764 20.5252 4.39335 20.5188 3.9969C20.5123 3.70065 20.5716 3.26111 20.3031 3.18354C20.0347 3.10598 19.7285 3.399 19.5484 3.68556C19.5006 3.76091 19.4476 3.8329 19.39 3.90102C19.2369 4.08416 19.0493 4.26407 18.8186 4.27915C17.7922 4.35026 16.6731 4.7327 15.9766 3.53151C15.9212 3.46122 15.8523 3.40263 15.774 3.35914C15.3017 3.02841 15.1648 3.07474 15.1422 3.65432C15.1066 4.56679 15.1034 5.48573 15.1271 6.39604C15.1245 7.11033 15.406 7.79639 15.9097 8.30329C16.4133 8.81019 17.0978 9.09641 17.8127 9.09898C18.5275 9.10155 19.2141 8.82026 19.7214 8.317C20.2287 7.81374 20.5151 7.12972 20.5177 6.41543C20.5328 6.00714 20.5188 5.59453 20.5188 5.18193ZM6.1884 14.2592V15.2094C6.1884 15.915 6.17331 15.9333 5.47684 15.9635C5.23211 15.9743 5.04559 15.9732 5.14478 16.3169C5.39059 17.1981 6.35119 17.8994 7.36031 17.8973C8.36943 17.8951 9.3419 17.1873 9.56399 16.3093C9.62113 16.082 9.58879 15.9915 9.33327 15.9624C8.52792 15.873 8.529 15.8633 8.529 15.0327C8.529 14.8894 8.52145 14.7462 8.529 14.6018C8.54085 14.368 8.44921 14.2625 8.20556 14.3271C7.56839 14.5048 6.93015 14.4402 6.1884 14.2592ZM17.817 3.56922C18.1868 3.53582 18.6288 3.71034 18.8876 3.28266C19.0701 2.9726 19.3417 2.72451 19.667 2.57056C19.9657 2.42836 19.9549 2.28723 19.735 2.05777C18.8207 1.10329 17.1475 1.01172 16.1103 1.87678C15.6004 2.30016 15.6036 2.31848 16.1416 2.67291C16.2893 2.76986 16.465 2.87005 16.5459 3.01441C16.8262 3.5509 17.2736 3.65217 17.817 3.56922ZM21.7036 19.4238C21.7036 20.1779 21.7036 20.932 21.7036 21.6861C21.7036 21.8046 21.6928 21.9813 21.7607 22.0308C21.8934 22.1289 22.026 21.9834 22.1392 21.9102C22.3628 21.7724 22.5466 21.5787 22.6723 21.3482C22.7981 21.1177 22.8614 20.8584 22.8561 20.5959C22.8637 19.4486 22.8443 18.3012 22.8658 17.155C22.8755 16.625 22.5133 16.7726 22.2394 16.7607C21.9656 16.7489 21.6648 16.6831 21.6896 17.1658C21.7327 17.9166 21.7036 18.6708 21.7036 19.4238ZM17.7987 10.9498C18.3949 10.9379 18.9188 10.4639 18.977 9.92203C19.0018 9.6958 18.9717 9.59022 18.6935 9.66887C18.227 9.80416 17.7357 9.83033 17.2574 9.74535C17.0655 9.71088 16.8003 9.5105 16.6828 9.70442C16.5556 9.91988 16.7087 10.186 16.8467 10.4014C16.9463 10.5655 17.0858 10.7018 17.2522 10.7977C17.4187 10.8936 17.6066 10.9459 17.7987 10.9498ZM12.0156 15.9603H12.2841C12.5482 15.9603 12.7638 15.873 12.7531 15.5724C12.7423 15.2719 12.5288 15.1911 12.2647 15.1932C12.0491 15.1932 11.8334 15.1835 11.6178 15.2029C11.5679 15.2028 11.5186 15.213 11.4728 15.2327C11.427 15.2525 11.3858 15.2815 11.3517 15.3179C11.3176 15.3543 11.2914 15.3973 11.2747 15.4442C11.258 15.4912 11.2511 15.541 11.2545 15.5908C11.2545 15.8288 11.4108 15.9409 11.6372 15.9549C11.7644 15.9646 11.8906 15.9581 12.0156 15.9581V15.9603ZM14.3767 5.32198C14.1924 5.17762 14.5589 4.78333 14.1115 4.76286C13.7881 4.75209 13.5724 4.98694 13.5724 5.31336C13.5649 5.66779 13.7881 5.91341 14.1331 5.90156C14.5212 5.88648 14.2441 5.52882 14.3767 5.31982V5.32198ZM21.5624 4.75316C21.4201 4.74562 21.3122 4.75316 21.3079 4.86628C21.295 5.17008 21.2972 5.47388 21.3079 5.77875C21.3079 5.8951 21.406 5.9188 21.4998 5.9091C21.8233 5.87571 22.0389 5.70011 22.0562 5.36507C22.0745 4.99987 21.861 4.80918 21.5624 4.75316ZM3.53084 9.57191C3.34432 9.43832 3.7152 9.03326 3.24729 9.03865C2.91307 9.03865 2.7244 9.26703 2.73195 9.60207C2.7395 9.93711 2.93895 10.1526 3.27101 10.1407C3.6807 10.1256 3.39392 9.77552 3.53084 9.57191ZM11.22 9.55036C11.3515 9.73027 11.0464 10.0955 11.4485 10.1353C11.772 10.1677 11.979 9.9328 11.9876 9.60961C11.9962 9.28643 11.8108 9.05804 11.483 9.0408C11.0701 9.01818 11.3202 9.37153 11.22 9.54929V9.55036Z"/>
</mask>
<path d="M10.4728 15.9344C10.1861 17.1722 9.59741 17.991 8.56781 18.4391C6.85575 19.1846 4.90759 18.2474 4.37932 16.4063C4.27905 16.0583 4.14752 15.9226 3.79929 15.9635C3.61975 15.9738 3.43977 15.9738 3.26023 15.9635C2.21445 15.9635 1.51691 16.5345 1.36166 17.5568C1.1924 18.674 1.06302 19.7976 0.893759 20.9158C0.83554 21.2994 0.948743 21.4092 1.33579 21.4114C2.71147 21.4114 2.71578 21.4308 2.71362 20.0497C2.71362 19.7136 2.66187 19.3882 3.18692 19.4583C3.41656 19.4895 3.4931 19.5552 3.49202 19.7814C3.48448 21.2358 3.48017 22.6901 3.49202 24.1434C3.49202 24.458 3.3454 24.4849 3.09743 24.4881C2.84947 24.4914 2.69853 24.4343 2.70931 24.1337C2.72764 23.5951 2.70931 23.0564 2.71794 22.5178C2.72333 22.2625 2.63061 22.1881 2.37725 22.172C1.14496 22.0955 1.14604 22.0879 1.14604 23.2988C1.14604 23.5498 1.13741 23.8008 1.14604 24.0529C1.15466 24.305 1.13418 24.4957 0.783791 24.4935C0.452808 24.4935 0.340684 24.3858 0.36009 24.0572C0.383808 23.6457 0.367637 23.232 0.36009 22.8194C0.36009 22.5242 0.426933 22.2215 0.0948727 22.0114C-0.0625326 21.9102 -0.00215799 21.6796 0.0226387 21.503C0.212388 20.1337 0.396746 18.7645 0.599432 17.3985C0.809665 15.9829 2.07322 15.0564 3.27317 15.1782C3.86074 15.2374 4.4591 15.1782 5.05098 15.1932C5.32806 15.2008 5.41647 15.1157 5.42509 14.8291C5.43911 14.2765 5.39275 13.8369 4.84291 13.4674C4.12488 12.9837 3.73245 12.2102 3.57181 11.3484C3.52221 11.0887 3.43704 10.9552 3.14056 10.9293C2.88729 10.9149 2.64447 10.8235 2.44464 10.6674C2.24482 10.5112 2.09754 10.2978 2.02255 10.0556C1.83603 9.51697 1.93199 9.01387 2.35461 8.62173C2.43507 8.55314 2.49469 8.46339 2.5267 8.36266C2.55872 8.26193 2.56184 8.15426 2.53573 8.05184C2.4635 7.57245 2.41498 7.0909 2.34598 6.6115C1.99452 4.18758 3.91573 2.6255 5.65689 2.79249C6.63798 2.88513 7.63308 2.71815 8.61417 2.88729C9.33543 3.01225 10.0006 3.19647 10.0826 4.10463C10.102 4.32009 10.3122 4.34056 10.4944 4.37503C11.5316 4.57218 12.0038 5.14315 12.0038 6.20644C12.0038 6.6018 12.0038 6.99609 12.0038 7.39146C12.0038 7.89779 11.9951 8.3341 12.4501 8.77794C13.18 9.49111 12.6787 10.7322 11.648 10.9175C11.3008 10.9789 11.1941 11.1092 11.1186 11.4378C10.9163 12.3417 10.3897 13.1403 9.63838 13.6829C9.36562 13.8854 9.15969 14.8108 9.31494 15.0909C9.33772 15.1292 9.37183 15.1595 9.41257 15.1777C9.45332 15.1958 9.49868 15.2009 9.54243 15.1922C10.0028 15.1738 10.5041 15.343 10.8146 14.7806C10.9429 14.5501 11.2459 14.4305 11.5208 14.4499C11.8722 14.4736 11.938 14.2786 11.9779 14.0082C12.0857 13.2455 12.2313 12.486 12.3164 11.72C12.3682 11.26 12.5461 10.9821 12.9956 10.8043C13.8581 10.4618 14.7045 10.0502 15.5594 9.67856C15.9572 9.50404 16.0004 9.31336 15.6467 9.03218C14.9996 8.53239 14.5572 7.81376 14.4026 7.01118C14.3573 6.77417 14.2581 6.70522 14.0199 6.67291C13.2652 6.56518 12.7789 6.03515 12.7682 5.35753C12.7574 4.67991 13.2415 4.10894 13.98 4.00768C14.257 3.96997 14.3196 3.87301 14.3551 3.61877C14.6182 1.74535 16.0187 0.5 17.8245 0.5C19.6304 0.5 21.0255 1.75613 21.2745 3.62416C21.3112 3.89779 21.3985 3.96027 21.6583 3.9969C22.3958 4.10463 22.8777 4.67237 22.8615 5.35537C22.857 5.6826 22.7315 5.99659 22.5092 6.23687C22.2868 6.47715 21.9834 6.62671 21.6572 6.65675C21.3726 6.69122 21.2573 6.78171 21.2066 7.05535C21.061 7.84824 20.6255 8.47091 20.0261 8.99448C19.625 9.3446 19.6455 9.4728 20.1457 9.70011C21.0082 10.0933 21.8783 10.4887 22.7548 10.8571C22.898 10.9054 23.0239 10.9946 23.1169 11.1137C23.2098 11.2329 23.2657 11.3766 23.2777 11.5272C23.4998 13.0354 23.7412 14.5436 23.9741 16.0518C24.0129 16.3039 24.0507 16.5571 23.7757 16.7198C23.5774 16.8383 23.6464 17.043 23.6453 17.2089C23.6399 18.2678 23.6453 19.3268 23.6453 20.3858C23.6453 21.6312 23.1483 22.3799 21.999 22.8227C21.7661 22.9121 21.6939 23.0219 21.7047 23.2536C21.7176 23.5218 21.6896 23.7922 21.7122 24.0605C21.7381 24.3837 21.6357 24.5032 21.2961 24.5022C20.9565 24.5011 20.9252 24.3363 20.9284 24.0712C20.9371 23.1922 20.9187 22.312 20.9381 21.4329C20.9457 21.1033 20.8422 21.002 20.5069 21.002C18.6748 21.0157 16.842 21.0157 15.0085 21.002C14.6419 21.002 14.5772 21.1162 14.6656 21.4394C14.7357 21.7023 14.7605 21.9781 14.4673 22.1558C14.2915 22.2635 14.3422 22.4402 14.3411 22.5943C14.3347 23.0974 14.3239 23.6005 14.3411 24.1025C14.353 24.416 14.2225 24.4968 13.9293 24.5C13.6059 24.5 13.5282 24.3729 13.5379 24.0809C13.5541 23.5789 13.5261 23.0758 13.5466 22.5727C13.5606 22.2614 13.4387 22.186 13.1433 22.1795C12.0049 22.1547 12.0048 22.144 12.0048 23.2794C12.0048 23.5304 11.9951 23.7825 12.0048 24.0335C12.0189 24.3104 12.0049 24.5054 11.6254 24.5054C11.2459 24.5054 11.2308 24.3319 11.2318 24.0443C11.2415 22.6621 11.2459 21.2789 11.2318 19.8967C11.2318 19.5735 11.3181 19.4658 11.6534 19.4658C12.0081 19.4658 12.0264 19.6457 12.0059 19.9032C11.9995 19.9749 11.9995 20.047 12.0059 20.1186C12.0534 20.5377 11.7979 21.1572 12.1202 21.3317C12.5126 21.5471 13.097 21.3985 13.5983 21.4103C13.8333 21.4168 13.8581 21.2746 13.8312 21.0871C13.6479 19.8267 13.4776 18.5641 13.2716 17.3069C13.2037 16.8954 13.0345 16.6282 12.4695 16.723C11.7515 16.8426 10.9709 16.8867 10.4728 15.9344ZM13.9455 16.6885C13.9455 15.636 13.9455 14.6955 13.9455 13.755C13.9455 13.4868 13.8851 13.2369 14.3314 13.239C14.7778 13.2412 14.7088 13.5051 14.7088 13.7647C14.7088 15.7567 14.7206 17.7507 14.7001 19.7405C14.7001 20.1391 14.7961 20.2587 15.2058 20.2533C16.9308 20.2296 18.6558 20.2264 20.3808 20.2533C20.8411 20.2608 20.9457 20.1176 20.9403 19.6791C20.9177 17.6699 20.9403 15.6597 20.9252 13.6462C20.9252 13.3489 21.0104 13.2412 21.3209 13.2412C21.6314 13.2412 21.7241 13.3489 21.7112 13.6495C21.6917 14.0966 21.7112 14.5458 21.7112 14.995C21.7112 15.9861 21.7112 15.9646 22.7138 15.9646C23.0804 15.9646 23.1742 15.8569 23.1159 15.4992C22.9204 14.3142 22.7408 13.1259 22.5769 11.9344C22.5391 11.6619 22.3979 11.5304 22.1672 11.4302C21.4416 11.1168 20.7193 10.7989 20.0023 10.4682C19.7867 10.368 19.6854 10.3788 19.5474 10.6115C18.6752 12.0917 16.9599 12.0982 16.1103 10.6266C15.9831 10.4047 15.8947 10.3529 15.6618 10.4607C14.9298 10.8011 14.1891 11.1254 13.4495 11.4496C13.2576 11.5347 13.1261 11.6382 13.0948 11.8719C12.9956 12.6002 12.8792 13.3263 12.7563 14.0502C12.7132 14.3023 12.7218 14.4704 12.9967 14.6104C13.1941 14.704 13.3544 14.861 13.4521 15.0562C13.5498 15.2515 13.5793 15.4738 13.5358 15.6877C13.4635 16.0928 13.6522 16.3363 13.9455 16.6885ZM11.2405 8.00013C11.2405 7.36345 11.2405 6.79141 11.2405 6.21936C11.234 5.51697 11.0076 5.2498 10.3144 5.14853C9.8195 5.07635 9.42383 4.82534 9.35915 4.34271C9.29446 3.86009 9.00552 3.73189 8.61093 3.6694C7.57594 3.49704 6.53232 3.59507 5.49409 3.58322C4.27474 3.56814 3.31414 4.37827 3.12654 5.57299C2.9907 6.45314 3.24945 7.29666 3.34217 8.22744C3.83379 7.69849 4.46449 7.73943 5.00462 7.54228C5.33884 7.41947 5.61268 7.45825 5.87682 7.73404C6.20026 8.07339 6.63151 8.2059 7.09618 8.22206C7.40295 8.23851 7.70916 8.18058 7.98869 8.05321C8.26822 7.92584 8.51277 7.73281 8.70149 7.49057C9.04865 7.05966 9.39904 7.01549 9.86371 7.29989C10.2755 7.5509 10.723 7.74051 11.2405 8.00013ZM10.4642 9.92957C10.4642 9.45664 10.4642 9.11621 10.4642 8.77471C10.4707 8.23606 9.95535 8.30393 9.68043 8.09386C9.50901 7.96243 9.35699 7.9732 9.15969 8.13264C7.79372 9.25411 7.02071 9.30259 5.45744 8.40304C4.96905 8.12187 4.25102 8.50216 4.24994 9.04296C4.24994 9.56329 4.24024 10.0836 4.24994 10.604C4.2662 11.2731 4.49599 11.9195 4.90579 12.449C5.31559 12.9784 5.88397 13.3632 6.52801 13.5471C7.82175 13.9102 9.18773 13.3758 9.95535 12.2285C10.4577 11.4809 10.4933 10.6492 10.4642 9.92957ZM20.5188 5.18193C20.5188 4.78764 20.5252 4.39335 20.5188 3.9969C20.5123 3.70065 20.5716 3.26111 20.3031 3.18354C20.0347 3.10598 19.7285 3.399 19.5484 3.68556C19.5006 3.76091 19.4476 3.8329 19.39 3.90102C19.2369 4.08416 19.0493 4.26407 18.8186 4.27915C17.7922 4.35026 16.6731 4.7327 15.9766 3.53151C15.9212 3.46122 15.8523 3.40263 15.774 3.35914C15.3017 3.02841 15.1648 3.07474 15.1422 3.65432C15.1066 4.56679 15.1034 5.48573 15.1271 6.39604C15.1245 7.11033 15.406 7.79639 15.9097 8.30329C16.4133 8.81019 17.0978 9.09641 17.8127 9.09898C18.5275 9.10155 19.2141 8.82026 19.7214 8.317C20.2287 7.81374 20.5151 7.12972 20.5177 6.41543C20.5328 6.00714 20.5188 5.59453 20.5188 5.18193ZM6.1884 14.2592V15.2094C6.1884 15.915 6.17331 15.9333 5.47684 15.9635C5.23211 15.9743 5.04559 15.9732 5.14478 16.3169C5.39059 17.1981 6.35119 17.8994 7.36031 17.8973C8.36943 17.8951 9.3419 17.1873 9.56399 16.3093C9.62113 16.082 9.58879 15.9915 9.33327 15.9624C8.52792 15.873 8.529 15.8633 8.529 15.0327C8.529 14.8894 8.52145 14.7462 8.529 14.6018C8.54085 14.368 8.44921 14.2625 8.20556 14.3271C7.56839 14.5048 6.93015 14.4402 6.1884 14.2592ZM17.817 3.56922C18.1868 3.53582 18.6288 3.71034 18.8876 3.28266C19.0701 2.9726 19.3417 2.72451 19.667 2.57056C19.9657 2.42836 19.9549 2.28723 19.735 2.05777C18.8207 1.10329 17.1475 1.01172 16.1103 1.87678C15.6004 2.30016 15.6036 2.31848 16.1416 2.67291C16.2893 2.76986 16.465 2.87005 16.5459 3.01441C16.8262 3.5509 17.2736 3.65217 17.817 3.56922ZM21.7036 19.4238C21.7036 20.1779 21.7036 20.932 21.7036 21.6861C21.7036 21.8046 21.6928 21.9813 21.7607 22.0308C21.8934 22.1289 22.026 21.9834 22.1392 21.9102C22.3628 21.7724 22.5466 21.5787 22.6723 21.3482C22.7981 21.1177 22.8614 20.8584 22.8561 20.5959C22.8637 19.4486 22.8443 18.3012 22.8658 17.155C22.8755 16.625 22.5133 16.7726 22.2394 16.7607C21.9656 16.7489 21.6648 16.6831 21.6896 17.1658C21.7327 17.9166 21.7036 18.6708 21.7036 19.4238ZM17.7987 10.9498C18.3949 10.9379 18.9188 10.4639 18.977 9.92203C19.0018 9.6958 18.9717 9.59022 18.6935 9.66887C18.227 9.80416 17.7357 9.83033 17.2574 9.74535C17.0655 9.71088 16.8003 9.5105 16.6828 9.70442C16.5556 9.91988 16.7087 10.186 16.8467 10.4014C16.9463 10.5655 17.0858 10.7018 17.2522 10.7977C17.4187 10.8936 17.6066 10.9459 17.7987 10.9498ZM12.0156 15.9603H12.2841C12.5482 15.9603 12.7638 15.873 12.7531 15.5724C12.7423 15.2719 12.5288 15.1911 12.2647 15.1932C12.0491 15.1932 11.8334 15.1835 11.6178 15.2029C11.5679 15.2028 11.5186 15.213 11.4728 15.2327C11.427 15.2525 11.3858 15.2815 11.3517 15.3179C11.3176 15.3543 11.2914 15.3973 11.2747 15.4442C11.258 15.4912 11.2511 15.541 11.2545 15.5908C11.2545 15.8288 11.4108 15.9409 11.6372 15.9549C11.7644 15.9646 11.8906 15.9581 12.0156 15.9581V15.9603ZM14.3767 5.32198C14.1924 5.17762 14.5589 4.78333 14.1115 4.76286C13.7881 4.75209 13.5724 4.98694 13.5724 5.31336C13.5649 5.66779 13.7881 5.91341 14.1331 5.90156C14.5212 5.88648 14.2441 5.52882 14.3767 5.31982V5.32198ZM21.5624 4.75316C21.4201 4.74562 21.3122 4.75316 21.3079 4.86628C21.295 5.17008 21.2972 5.47388 21.3079 5.77875C21.3079 5.8951 21.406 5.9188 21.4998 5.9091C21.8233 5.87571 22.0389 5.70011 22.0562 5.36507C22.0745 4.99987 21.861 4.80918 21.5624 4.75316ZM3.53084 9.57191C3.34432 9.43832 3.7152 9.03326 3.24729 9.03865C2.91307 9.03865 2.7244 9.26703 2.73195 9.60207C2.7395 9.93711 2.93895 10.1526 3.27101 10.1407C3.6807 10.1256 3.39392 9.77552 3.53084 9.57191ZM11.22 9.55036C11.3515 9.73027 11.0464 10.0955 11.4485 10.1353C11.772 10.1677 11.979 9.9328 11.9876 9.60961C11.9962 9.28643 11.8108 9.05804 11.483 9.0408C11.0701 9.01818 11.3202 9.37153 11.22 9.54929V9.55036Z" fill="#FA8B02"/>
<path d="M10.4728 15.9344C10.1861 17.1722 9.59741 17.991 8.56781 18.4391C6.85575 19.1846 4.90759 18.2474 4.37932 16.4063C4.27905 16.0583 4.14752 15.9226 3.79929 15.9635C3.61975 15.9738 3.43977 15.9738 3.26023 15.9635C2.21445 15.9635 1.51691 16.5345 1.36166 17.5568C1.1924 18.674 1.06302 19.7976 0.893759 20.9158C0.83554 21.2994 0.948743 21.4092 1.33579 21.4114C2.71147 21.4114 2.71578 21.4308 2.71362 20.0497C2.71362 19.7136 2.66187 19.3882 3.18692 19.4583C3.41656 19.4895 3.4931 19.5552 3.49202 19.7814C3.48448 21.2358 3.48017 22.6901 3.49202 24.1434C3.49202 24.458 3.3454 24.4849 3.09743 24.4881C2.84947 24.4914 2.69853 24.4343 2.70931 24.1337C2.72764 23.5951 2.70931 23.0564 2.71794 22.5178C2.72333 22.2625 2.63061 22.1881 2.37725 22.172C1.14496 22.0955 1.14604 22.0879 1.14604 23.2988C1.14604 23.5498 1.13741 23.8008 1.14604 24.0529C1.15466 24.305 1.13418 24.4957 0.783791 24.4935C0.452808 24.4935 0.340684 24.3858 0.36009 24.0572C0.383808 23.6457 0.367637 23.232 0.36009 22.8194C0.36009 22.5242 0.426933 22.2215 0.0948727 22.0114C-0.0625326 21.9102 -0.00215799 21.6796 0.0226387 21.503C0.212388 20.1337 0.396746 18.7645 0.599432 17.3985C0.809665 15.9829 2.07322 15.0564 3.27317 15.1782C3.86074 15.2374 4.4591 15.1782 5.05098 15.1932C5.32806 15.2008 5.41647 15.1157 5.42509 14.8291C5.43911 14.2765 5.39275 13.8369 4.84291 13.4674C4.12488 12.9837 3.73245 12.2102 3.57181 11.3484C3.52221 11.0887 3.43704 10.9552 3.14056 10.9293C2.88729 10.9149 2.64447 10.8235 2.44464 10.6674C2.24482 10.5112 2.09754 10.2978 2.02255 10.0556C1.83603 9.51697 1.93199 9.01387 2.35461 8.62173C2.43507 8.55314 2.49469 8.46339 2.5267 8.36266C2.55872 8.26193 2.56184 8.15426 2.53573 8.05184C2.4635 7.57245 2.41498 7.0909 2.34598 6.6115C1.99452 4.18758 3.91573 2.6255 5.65689 2.79249C6.63798 2.88513 7.63308 2.71815 8.61417 2.88729C9.33543 3.01225 10.0006 3.19647 10.0826 4.10463C10.102 4.32009 10.3122 4.34056 10.4944 4.37503C11.5316 4.57218 12.0038 5.14315 12.0038 6.20644C12.0038 6.6018 12.0038 6.99609 12.0038 7.39146C12.0038 7.89779 11.9951 8.3341 12.4501 8.77794C13.18 9.49111 12.6787 10.7322 11.648 10.9175C11.3008 10.9789 11.1941 11.1092 11.1186 11.4378C10.9163 12.3417 10.3897 13.1403 9.63838 13.6829C9.36562 13.8854 9.15969 14.8108 9.31494 15.0909C9.33772 15.1292 9.37183 15.1595 9.41257 15.1777C9.45332 15.1958 9.49868 15.2009 9.54243 15.1922C10.0028 15.1738 10.5041 15.343 10.8146 14.7806C10.9429 14.5501 11.2459 14.4305 11.5208 14.4499C11.8722 14.4736 11.938 14.2786 11.9779 14.0082C12.0857 13.2455 12.2313 12.486 12.3164 11.72C12.3682 11.26 12.5461 10.9821 12.9956 10.8043C13.8581 10.4618 14.7045 10.0502 15.5594 9.67856C15.9572 9.50404 16.0004 9.31336 15.6467 9.03218C14.9996 8.53239 14.5572 7.81376 14.4026 7.01118C14.3573 6.77417 14.2581 6.70522 14.0199 6.67291C13.2652 6.56518 12.7789 6.03515 12.7682 5.35753C12.7574 4.67991 13.2415 4.10894 13.98 4.00768C14.257 3.96997 14.3196 3.87301 14.3551 3.61877C14.6182 1.74535 16.0187 0.5 17.8245 0.5C19.6304 0.5 21.0255 1.75613 21.2745 3.62416C21.3112 3.89779 21.3985 3.96027 21.6583 3.9969C22.3958 4.10463 22.8777 4.67237 22.8615 5.35537C22.857 5.6826 22.7315 5.99659 22.5092 6.23687C22.2868 6.47715 21.9834 6.62671 21.6572 6.65675C21.3726 6.69122 21.2573 6.78171 21.2066 7.05535C21.061 7.84824 20.6255 8.47091 20.0261 8.99448C19.625 9.3446 19.6455 9.4728 20.1457 9.70011C21.0082 10.0933 21.8783 10.4887 22.7548 10.8571C22.898 10.9054 23.0239 10.9946 23.1169 11.1137C23.2098 11.2329 23.2657 11.3766 23.2777 11.5272C23.4998 13.0354 23.7412 14.5436 23.9741 16.0518C24.0129 16.3039 24.0507 16.5571 23.7757 16.7198C23.5774 16.8383 23.6464 17.043 23.6453 17.2089C23.6399 18.2678 23.6453 19.3268 23.6453 20.3858C23.6453 21.6312 23.1483 22.3799 21.999 22.8227C21.7661 22.9121 21.6939 23.0219 21.7047 23.2536C21.7176 23.5218 21.6896 23.7922 21.7122 24.0605C21.7381 24.3837 21.6357 24.5032 21.2961 24.5022C20.9565 24.5011 20.9252 24.3363 20.9284 24.0712C20.9371 23.1922 20.9187 22.312 20.9381 21.4329C20.9457 21.1033 20.8422 21.002 20.5069 21.002C18.6748 21.0157 16.842 21.0157 15.0085 21.002C14.6419 21.002 14.5772 21.1162 14.6656 21.4394C14.7357 21.7023 14.7605 21.9781 14.4673 22.1558C14.2915 22.2635 14.3422 22.4402 14.3411 22.5943C14.3347 23.0974 14.3239 23.6005 14.3411 24.1025C14.353 24.416 14.2225 24.4968 13.9293 24.5C13.6059 24.5 13.5282 24.3729 13.5379 24.0809C13.5541 23.5789 13.5261 23.0758 13.5466 22.5727C13.5606 22.2614 13.4387 22.186 13.1433 22.1795C12.0049 22.1547 12.0048 22.144 12.0048 23.2794C12.0048 23.5304 11.9951 23.7825 12.0048 24.0335C12.0189 24.3104 12.0049 24.5054 11.6254 24.5054C11.2459 24.5054 11.2308 24.3319 11.2318 24.0443C11.2415 22.6621 11.2459 21.2789 11.2318 19.8967C11.2318 19.5735 11.3181 19.4658 11.6534 19.4658C12.0081 19.4658 12.0264 19.6457 12.0059 19.9032C11.9995 19.9749 11.9995 20.047 12.0059 20.1186C12.0534 20.5377 11.7979 21.1572 12.1202 21.3317C12.5126 21.5471 13.097 21.3985 13.5983 21.4103C13.8333 21.4168 13.8581 21.2746 13.8312 21.0871C13.6479 19.8267 13.4776 18.5641 13.2716 17.3069C13.2037 16.8954 13.0345 16.6282 12.4695 16.723C11.7515 16.8426 10.9709 16.8867 10.4728 15.9344ZM13.9455 16.6885C13.9455 15.636 13.9455 14.6955 13.9455 13.755C13.9455 13.4868 13.8851 13.2369 14.3314 13.239C14.7778 13.2412 14.7088 13.5051 14.7088 13.7647C14.7088 15.7567 14.7206 17.7507 14.7001 19.7405C14.7001 20.1391 14.7961 20.2587 15.2058 20.2533C16.9308 20.2296 18.6558 20.2264 20.3808 20.2533C20.8411 20.2608 20.9457 20.1176 20.9403 19.6791C20.9177 17.6699 20.9403 15.6597 20.9252 13.6462C20.9252 13.3489 21.0104 13.2412 21.3209 13.2412C21.6314 13.2412 21.7241 13.3489 21.7112 13.6495C21.6917 14.0966 21.7112 14.5458 21.7112 14.995C21.7112 15.9861 21.7112 15.9646 22.7138 15.9646C23.0804 15.9646 23.1742 15.8569 23.1159 15.4992C22.9204 14.3142 22.7408 13.1259 22.5769 11.9344C22.5391 11.6619 22.3979 11.5304 22.1672 11.4302C21.4416 11.1168 20.7193 10.7989 20.0023 10.4682C19.7867 10.368 19.6854 10.3788 19.5474 10.6115C18.6752 12.0917 16.9599 12.0982 16.1103 10.6266C15.9831 10.4047 15.8947 10.3529 15.6618 10.4607C14.9298 10.8011 14.1891 11.1254 13.4495 11.4496C13.2576 11.5347 13.1261 11.6382 13.0948 11.8719C12.9956 12.6002 12.8792 13.3263 12.7563 14.0502C12.7132 14.3023 12.7218 14.4704 12.9967 14.6104C13.1941 14.704 13.3544 14.861 13.4521 15.0562C13.5498 15.2515 13.5793 15.4738 13.5358 15.6877C13.4635 16.0928 13.6522 16.3363 13.9455 16.6885ZM11.2405 8.00013C11.2405 7.36345 11.2405 6.79141 11.2405 6.21936C11.234 5.51697 11.0076 5.2498 10.3144 5.14853C9.8195 5.07635 9.42383 4.82534 9.35915 4.34271C9.29446 3.86009 9.00552 3.73189 8.61093 3.6694C7.57594 3.49704 6.53232 3.59507 5.49409 3.58322C4.27474 3.56814 3.31414 4.37827 3.12654 5.57299C2.9907 6.45314 3.24945 7.29666 3.34217 8.22744C3.83379 7.69849 4.46449 7.73943 5.00462 7.54228C5.33884 7.41947 5.61268 7.45825 5.87682 7.73404C6.20026 8.07339 6.63151 8.2059 7.09618 8.22206C7.40295 8.23851 7.70916 8.18058 7.98869 8.05321C8.26822 7.92584 8.51277 7.73281 8.70149 7.49057C9.04865 7.05966 9.39904 7.01549 9.86371 7.29989C10.2755 7.5509 10.723 7.74051 11.2405 8.00013ZM10.4642 9.92957C10.4642 9.45664 10.4642 9.11621 10.4642 8.77471C10.4707 8.23606 9.95535 8.30393 9.68043 8.09386C9.50901 7.96243 9.35699 7.9732 9.15969 8.13264C7.79372 9.25411 7.02071 9.30259 5.45744 8.40304C4.96905 8.12187 4.25102 8.50216 4.24994 9.04296C4.24994 9.56329 4.24024 10.0836 4.24994 10.604C4.2662 11.2731 4.49599 11.9195 4.90579 12.449C5.31559 12.9784 5.88397 13.3632 6.52801 13.5471C7.82175 13.9102 9.18773 13.3758 9.95535 12.2285C10.4577 11.4809 10.4933 10.6492 10.4642 9.92957ZM20.5188 5.18193C20.5188 4.78764 20.5252 4.39335 20.5188 3.9969C20.5123 3.70065 20.5716 3.26111 20.3031 3.18354C20.0347 3.10598 19.7285 3.399 19.5484 3.68556C19.5006 3.76091 19.4476 3.8329 19.39 3.90102C19.2369 4.08416 19.0493 4.26407 18.8186 4.27915C17.7922 4.35026 16.6731 4.7327 15.9766 3.53151C15.9212 3.46122 15.8523 3.40263 15.774 3.35914C15.3017 3.02841 15.1648 3.07474 15.1422 3.65432C15.1066 4.56679 15.1034 5.48573 15.1271 6.39604C15.1245 7.11033 15.406 7.79639 15.9097 8.30329C16.4133 8.81019 17.0978 9.09641 17.8127 9.09898C18.5275 9.10155 19.2141 8.82026 19.7214 8.317C20.2287 7.81374 20.5151 7.12972 20.5177 6.41543C20.5328 6.00714 20.5188 5.59453 20.5188 5.18193ZM6.1884 14.2592V15.2094C6.1884 15.915 6.17331 15.9333 5.47684 15.9635C5.23211 15.9743 5.04559 15.9732 5.14478 16.3169C5.39059 17.1981 6.35119 17.8994 7.36031 17.8973C8.36943 17.8951 9.3419 17.1873 9.56399 16.3093C9.62113 16.082 9.58879 15.9915 9.33327 15.9624C8.52792 15.873 8.529 15.8633 8.529 15.0327C8.529 14.8894 8.52145 14.7462 8.529 14.6018C8.54085 14.368 8.44921 14.2625 8.20556 14.3271C7.56839 14.5048 6.93015 14.4402 6.1884 14.2592ZM17.817 3.56922C18.1868 3.53582 18.6288 3.71034 18.8876 3.28266C19.0701 2.9726 19.3417 2.72451 19.667 2.57056C19.9657 2.42836 19.9549 2.28723 19.735 2.05777C18.8207 1.10329 17.1475 1.01172 16.1103 1.87678C15.6004 2.30016 15.6036 2.31848 16.1416 2.67291C16.2893 2.76986 16.465 2.87005 16.5459 3.01441C16.8262 3.5509 17.2736 3.65217 17.817 3.56922ZM21.7036 19.4238C21.7036 20.1779 21.7036 20.932 21.7036 21.6861C21.7036 21.8046 21.6928 21.9813 21.7607 22.0308C21.8934 22.1289 22.026 21.9834 22.1392 21.9102C22.3628 21.7724 22.5466 21.5787 22.6723 21.3482C22.7981 21.1177 22.8614 20.8584 22.8561 20.5959C22.8637 19.4486 22.8443 18.3012 22.8658 17.155C22.8755 16.625 22.5133 16.7726 22.2394 16.7607C21.9656 16.7489 21.6648 16.6831 21.6896 17.1658C21.7327 17.9166 21.7036 18.6708 21.7036 19.4238ZM17.7987 10.9498C18.3949 10.9379 18.9188 10.4639 18.977 9.92203C19.0018 9.6958 18.9717 9.59022 18.6935 9.66887C18.227 9.80416 17.7357 9.83033 17.2574 9.74535C17.0655 9.71088 16.8003 9.5105 16.6828 9.70442C16.5556 9.91988 16.7087 10.186 16.8467 10.4014C16.9463 10.5655 17.0858 10.7018 17.2522 10.7977C17.4187 10.8936 17.6066 10.9459 17.7987 10.9498ZM12.0156 15.9603H12.2841C12.5482 15.9603 12.7638 15.873 12.7531 15.5724C12.7423 15.2719 12.5288 15.1911 12.2647 15.1932C12.0491 15.1932 11.8334 15.1835 11.6178 15.2029C11.5679 15.2028 11.5186 15.213 11.4728 15.2327C11.427 15.2525 11.3858 15.2815 11.3517 15.3179C11.3176 15.3543 11.2914 15.3973 11.2747 15.4442C11.258 15.4912 11.2511 15.541 11.2545 15.5908C11.2545 15.8288 11.4108 15.9409 11.6372 15.9549C11.7644 15.9646 11.8906 15.9581 12.0156 15.9581V15.9603ZM14.3767 5.32198C14.1924 5.17762 14.5589 4.78333 14.1115 4.76286C13.7881 4.75209 13.5724 4.98694 13.5724 5.31336C13.5649 5.66779 13.7881 5.91341 14.1331 5.90156C14.5212 5.88648 14.2441 5.52882 14.3767 5.31982V5.32198ZM21.5624 4.75316C21.4201 4.74562 21.3122 4.75316 21.3079 4.86628C21.295 5.17008 21.2972 5.47388 21.3079 5.77875C21.3079 5.8951 21.406 5.9188 21.4998 5.9091C21.8233 5.87571 22.0389 5.70011 22.0562 5.36507C22.0745 4.99987 21.861 4.80918 21.5624 4.75316ZM3.53084 9.57191C3.34432 9.43832 3.7152 9.03326 3.24729 9.03865C2.91307 9.03865 2.7244 9.26703 2.73195 9.60207C2.7395 9.93711 2.93895 10.1526 3.27101 10.1407C3.6807 10.1256 3.39392 9.77552 3.53084 9.57191ZM11.22 9.55036C11.3515 9.73027 11.0464 10.0955 11.4485 10.1353C11.772 10.1677 11.979 9.9328 11.9876 9.60961C11.9962 9.28643 11.8108 9.05804 11.483 9.0408C11.0701 9.01818 11.3202 9.37153 11.22 9.54929V9.55036Z" stroke="#FA8B02" stroke-width="0.4" mask="url(#path-1-outside-1_1_1757)"/>
<path d="M17.794 22.0654C18.0119 22.0592 18.1644 22.1097 18.2462 22.2422C18.2837 22.3032 18.3002 22.3725 18.3077 22.4404C18.3151 22.5084 18.3142 22.5834 18.3126 22.6572C18.3018 23.1562 18.2975 23.6542 18.3126 24.1504C18.3174 24.3234 18.2711 24.4504 18.1563 24.5225C18.0561 24.5852 17.9228 24.5908 17.8057 24.5918C17.6817 24.5929 17.5498 24.5792 17.4522 24.5059C17.3455 24.4254 17.306 24.295 17.3174 24.1279C17.3322 23.8657 17.3184 23.6072 17.3184 23.332C17.3184 23.0959 17.3259 22.8703 17.3184 22.6406L17.3194 22.6396C17.3162 22.5716 17.3134 22.5027 17.3194 22.4395C17.3255 22.3754 17.3403 22.3095 17.3751 22.251C17.4502 22.1251 17.5921 22.0712 17.794 22.0654Z" fill="#FA8B02" stroke="#FA8B02" stroke-width="0.2"/>
</g>
<defs>
<clipPath id="clip0_1_1757">
<rect width="24" height="24" fill="white" transform="translate(0 0.5)"/>
</clipPath>
</defs>
</svg>
