<svg width="24" height="25" viewBox="0 0 24 25" fill="none" xmlns="http://www.w3.org/2000/svg">
<path d="M9.82227 7.83252C10.4364 7.61655 10.914 7.97218 11.2705 8.32666C11.718 8.77229 11.9535 9.33179 12.0752 9.90869L12.1211 10.1567V10.1577C12.3241 11.4836 12.2734 12.8149 11.6338 14.0552L11.6348 14.0562C11.5971 14.1295 11.5758 14.1799 11.5664 14.2144C11.6002 14.2213 11.6534 14.2268 11.7344 14.2261C13.3108 14.213 14.869 14.2354 16.4414 14.2134C16.7591 14.2087 17.0618 14.2483 17.3213 14.3755C17.5851 14.5049 17.7941 14.7192 17.9307 15.0405L17.9736 15.1528C18.0646 15.4138 18.0828 15.6717 18.0215 15.9165C17.9514 16.1963 17.781 16.445 17.5254 16.6538C17.4933 16.6801 17.4799 16.6977 17.4746 16.7065L17.4717 16.7124C17.4717 16.7151 17.4724 16.7255 17.4814 16.7485C17.4909 16.7725 17.5056 16.8009 17.5264 16.8413H17.5254C17.723 17.224 17.808 17.564 17.7285 17.8882C17.6494 18.2108 17.4163 18.4834 17.0615 18.7515H17.0605L16.9814 18.8257C16.9814 18.826 16.9805 18.8274 16.9805 18.8286C16.9804 18.8312 16.9812 18.8358 16.9824 18.8433L17.0098 18.9292L17.0107 18.9312C17.1768 19.3578 17.2305 19.7193 17.1104 20.0425C16.9905 20.3644 16.7111 20.613 16.3018 20.8462H16.3008C16.2198 20.8914 16.2249 20.9083 16.2275 20.8979C16.2278 20.8967 16.2259 20.9028 16.2295 20.9233C16.2334 20.9452 16.2414 20.9735 16.2549 21.0161C16.4315 21.5743 16.371 22.0853 16.0947 22.4604C15.8186 22.8354 15.3476 23.0463 14.7627 23.0474C12.5244 23.0474 10.2882 23.0422 8.05176 23.0532H8.05078C7.84777 23.0532 7.66264 22.9923 7.50684 22.9399C7.34225 22.8846 7.21475 22.8416 7.09082 22.8403C7.05624 22.8406 7.03462 22.8515 7.01074 22.8774C6.98019 22.9107 6.95259 22.9621 6.91602 23.0396C6.88283 23.1098 6.84156 23.2034 6.78809 23.2856C6.73302 23.3703 6.65667 23.454 6.54492 23.5083L6.5459 23.5093C6.30175 23.6315 6.03281 23.6962 5.75977 23.6978H1.7002C1.27699 23.6951 0.934232 23.5875 0.697266 23.3472C0.460895 23.1074 0.35442 22.7607 0.349609 22.3335V14.6177C0.349609 14.1169 0.441135 13.7306 0.693359 13.4741C0.946311 13.2169 1.32754 13.1235 1.82031 13.1235C3.09107 13.1235 4.35809 13.1337 5.625 13.1177C5.93232 13.1135 6.22588 13.1526 6.47363 13.2837C6.72694 13.4179 6.9181 13.6414 7.03125 13.9751C7.04089 14.0035 7.05219 14.0205 7.05859 14.0317C7.06752 14.0275 7.08058 14.0229 7.09668 14.0132C7.11265 14.0035 7.12636 13.9949 7.14551 13.9829C7.16284 13.9721 7.18369 13.9599 7.20508 13.9487L7.40625 13.8354C8.38083 13.2467 8.86059 12.3189 9.05566 11.1753C9.16945 10.5102 9.15367 9.8437 9.16992 9.1499C9.17522 8.92601 9.17435 8.65342 9.25 8.41553C9.33003 8.16388 9.49655 7.94666 9.82227 7.8335V7.83252ZM4.4209 13.8608C4.23255 13.8453 4.18182 13.8831 4.16406 13.9048C4.1358 13.9394 4.11514 14.0166 4.11816 14.1987V14.1997C4.13721 15.4684 4.12503 16.739 4.12402 18.0083C4.12721 18.1433 4.12101 18.2782 4.10742 18.4126C4.10508 18.5009 4.07079 18.586 4.00977 18.6499C3.95158 18.7108 3.87353 18.7473 3.79004 18.7563L3.79102 18.7573H3.78809C3.78463 18.7577 3.78082 18.759 3.77734 18.7593L3.77637 18.7573C3.72981 18.7629 3.68285 18.7616 3.6377 18.7485C3.58785 18.7341 3.54181 18.7087 3.50293 18.6743C3.46419 18.6401 3.43351 18.5978 3.41309 18.5503C3.39527 18.5087 3.38659 18.4636 3.38574 18.4185V18.4194C3.37169 18.2803 3.36527 18.1403 3.36816 18.0005C3.36815 16.7192 3.35905 15.4336 3.37305 14.1499L3.36914 14.0493C3.36038 13.9661 3.34047 13.9293 3.32324 13.9116C3.30785 13.896 3.27469 13.8764 3.19434 13.8706L3.09766 13.8696C2.64925 13.8906 2.175 13.8697 1.74219 13.8765C1.45114 13.882 1.31105 13.9306 1.23535 14.0063C1.16024 14.0817 1.11283 14.2208 1.1123 14.5122C1.10696 17.1166 1.10696 19.7191 1.1123 22.3188V22.3198C1.11236 22.6032 1.16182 22.7463 1.24023 22.8247C1.29926 22.8837 1.39483 22.9258 1.55762 22.9438L1.74414 22.9536L3.69531 22.9585C4.34618 22.9585 4.99755 22.9566 5.64941 22.9536H5.65039C5.96449 22.9536 6.11449 22.9022 6.19531 22.8188C6.27753 22.7339 6.32663 22.5774 6.32715 22.2593L6.32422 18.4058V14.5981C6.3242 14.2494 6.2785 14.0889 6.19824 14.0044C6.11989 13.9222 5.9704 13.8731 5.63379 13.8696C5.24627 13.8697 4.82901 13.8945 4.4209 13.8608ZM10.5469 8.72021C10.3669 8.58552 10.2313 8.517 10.0898 8.57178C10.0169 8.60099 9.98852 8.64628 9.97168 8.71045C9.9611 8.75092 9.95658 8.79249 9.9541 8.83936L9.94727 9.00146C9.91022 9.66634 9.92624 10.378 9.84668 11.0591C9.6556 12.7141 8.89329 14.0339 7.31055 14.7593L7.30957 14.7583C7.19126 14.8134 7.14795 14.8749 7.12598 14.9351C7.09936 15.0081 7.09766 15.0972 7.09766 15.231V21.4897C7.09766 21.7752 7.15735 21.9579 7.26172 22.0776C7.36531 22.1962 7.5354 22.2785 7.81445 22.3159C7.92413 22.3251 8.03458 22.3276 8.14453 22.3228H8.14941L11.4033 22.3003H14.8105C15.3033 22.3003 15.629 21.9813 15.6396 21.5903C15.645 21.3898 15.5755 21.2433 15.4512 21.1431C15.3217 21.0387 15.1163 20.9706 14.832 20.9683C14.0351 20.9623 13.2283 20.9685 12.4277 20.9575C12.38 20.9576 12.3445 20.9608 12.2793 20.9624C12.2239 20.9637 12.1566 20.9629 12.0918 20.9487C12.0256 20.9342 11.9503 20.9037 11.8926 20.8364C11.8343 20.7684 11.8093 20.681 11.8076 20.5854C11.806 20.4908 11.8278 20.4036 11.8818 20.3335C11.9357 20.2637 12.0082 20.2291 12.0742 20.2114C12.1387 20.1941 12.2063 20.1903 12.2627 20.1899C12.2914 20.1897 12.32 20.1903 12.3457 20.1909C12.3724 20.1915 12.396 20.192 12.418 20.1919H12.4189C13.5029 20.1919 14.5876 20.1921 15.6719 20.1851H15.6729C15.9431 20.185 16.1303 20.1184 16.2471 20.0171C16.3601 19.9189 16.4255 19.7715 16.4238 19.5659L16.4092 19.4292C16.3832 19.3024 16.3242 19.2043 16.2402 19.1323C16.1254 19.0341 15.9463 18.9695 15.6943 18.9663C15.0614 18.9573 14.4311 18.9663 13.793 18.9663C13.7442 18.9663 13.7114 18.9697 13.6445 18.9712C13.5893 18.9724 13.5212 18.971 13.4561 18.9556C13.3893 18.9397 13.314 18.9064 13.2588 18.8345C13.2037 18.7625 13.1843 18.6723 13.1875 18.5757L13.1943 18.5063C13.2058 18.4391 13.2318 18.3788 13.2754 18.3286C13.3329 18.2626 13.4068 18.2314 13.4727 18.2163C13.5371 18.2016 13.6037 18.1991 13.6592 18.1997C13.7255 18.2004 13.7603 18.2041 13.8096 18.2036H16.1641C16.4767 18.2036 16.6755 18.1447 16.7949 18.0513C16.9069 17.9635 16.9739 17.8254 16.9766 17.6011C16.9792 17.3786 16.9127 17.2332 16.7998 17.1382C16.7109 17.0635 16.5791 17.0085 16.3936 16.9839L16.1904 16.9692H13.9385C13.852 16.9692 13.7368 16.9602 13.6426 16.9019C13.5918 16.8704 13.5478 16.8249 13.5195 16.7632C13.5057 16.733 13.4961 16.7014 13.4912 16.6685L13.4883 16.5669C13.4921 16.5021 13.5102 16.4412 13.5459 16.3892C13.5822 16.3363 13.6301 16.3023 13.6777 16.2808C13.765 16.2413 13.8679 16.2371 13.9307 16.2339H14.2891C15.0735 16.2339 15.8578 16.234 16.6416 16.229H16.6426C16.7867 16.229 16.9084 16.2028 17.0049 16.1499C17.0988 16.0983 17.1774 16.0163 17.2324 15.8882L17.2354 15.8813C17.2888 15.7707 17.3103 15.647 17.2959 15.5249C17.2815 15.4028 17.2321 15.2871 17.1543 15.1919L17.1523 15.1899C16.992 14.9842 16.7668 14.98 16.4482 14.98H11.0889C11.0533 14.98 11.027 14.9819 10.9805 14.9829C10.9403 14.9838 10.8925 14.9835 10.8438 14.9761C10.7384 14.9599 10.6273 14.9095 10.5527 14.7827C10.4766 14.6532 10.4904 14.5293 10.5352 14.4292C10.554 14.3872 10.5815 14.3458 10.6074 14.3091L10.6738 14.2183C11.5833 12.9389 11.593 11.5062 11.3291 10.0083V10.0063C11.2445 9.4929 10.9639 9.03241 10.5469 8.72119V8.72021Z" fill="#FA8B02" stroke="#FA8B02" stroke-width="0.3"/>
<path d="M16.6586 1.30322C19.997 1.32794 22.8189 3.65869 23.5053 6.95166C24.1695 10.1374 22.4955 13.445 19.5317 14.7554L19.5307 14.7544C19.4729 14.7802 19.4075 14.8209 19.3237 14.8687C19.2451 14.9135 19.1527 14.9641 19.059 14.9966C18.9659 15.0288 18.8516 15.0502 18.7377 15.0132C18.6179 14.9741 18.5291 14.8803 18.4692 14.7485C18.4104 14.6191 18.3962 14.4917 18.4506 14.3774C18.5022 14.2694 18.6002 14.2064 18.685 14.1675C18.771 14.1281 18.8696 14.1014 18.9506 14.0796C19.039 14.0558 19.1046 14.0385 19.1508 14.0171L19.4018 13.894C21.9571 12.5703 23.3063 9.73422 22.6586 6.93799C22.0026 4.10266 19.4122 2.09433 16.4809 2.14502C15.1842 2.16704 13.9266 2.59665 12.8881 3.37354C11.8497 4.15042 11.083 5.23541 10.6957 6.47314H10.6948C10.6575 6.59164 10.619 6.73092 10.5756 6.85791L10.5746 6.85693C10.5615 6.90892 10.5403 6.95835 10.5082 7.00146C10.4724 7.04947 10.4262 7.08933 10.3735 7.11768C10.3207 7.14601 10.2624 7.16218 10.2026 7.16553C10.1472 7.16861 10.0925 7.15907 10.0405 7.14014V7.14209C10.0367 7.14098 10.0334 7.1384 10.0297 7.13721H10.0278V7.13623C9.92109 7.10142 9.83864 7.0353 9.7934 6.93994C9.74838 6.84479 9.74846 6.73986 9.76996 6.646C9.80399 6.47826 9.84763 6.31258 9.90082 6.1499L9.99359 5.88525C10.4819 4.57619 11.349 3.43933 12.4877 2.62256C13.7026 1.75123 15.1636 1.28945 16.6586 1.30322Z" fill="#FA8B02" stroke="#FA8B02" stroke-width="0.3"/>
<path d="M16.569 3.84424C16.6692 3.83762 16.7613 3.8524 16.8385 3.89697C16.9171 3.94238 16.9659 4.01022 16.9948 4.08057C17.0481 4.21046 17.0382 4.36684 17.0289 4.47119V4.47412C17.0134 4.61643 17.0457 4.66354 17.0719 4.68701C17.1121 4.72287 17.1878 4.75008 17.3326 4.7749C18.1045 4.90681 18.5893 5.39892 18.8346 6.10596C18.8681 6.20316 18.9256 6.35674 18.9264 6.50049C18.9268 6.57658 18.912 6.66082 18.8629 6.73779C18.8253 6.79665 18.7727 6.84373 18.7076 6.87842L18.6383 6.90869C18.5334 6.94722 18.43 6.95864 18.3356 6.92334C18.2397 6.88752 18.1821 6.81488 18.1471 6.74756C18.1131 6.6822 18.0928 6.60824 18.0778 6.54932C18.061 6.48352 18.0505 6.43632 18.0358 6.396V6.39502C17.9186 6.07792 17.724 5.84735 17.4723 5.70654C17.251 5.58278 16.9767 5.52336 16.6569 5.54346L16.5172 5.55713C16.1775 5.60065 15.9118 5.71885 15.7252 5.89014C15.5631 6.03897 15.4544 6.23401 15.4088 6.47119L15.3932 6.57568C15.3596 6.88227 15.4254 7.14677 15.5729 7.35693C15.7206 7.56732 15.9581 7.73501 16.2858 7.83252C16.4547 7.88077 16.6291 7.91469 16.8121 7.95361C16.9922 7.99191 17.1794 8.03483 17.361 8.1001L17.5162 8.16162C18.2703 8.49063 18.6802 9.13966 18.6774 9.95264L18.6725 10.1177C18.6475 10.4978 18.5348 10.8374 18.3326 11.1206C18.1015 11.4443 17.7604 11.6839 17.3248 11.8296V11.8306C17.189 11.8755 17.1152 11.9148 17.0748 11.9604C17.0419 11.9977 17.0156 12.0573 17.026 12.186L17.0387 12.3589C17.0398 12.425 17.0349 12.4963 17.0162 12.562C16.9959 12.6333 16.9567 12.708 16.8854 12.7642C16.8143 12.8201 16.7249 12.8468 16.6237 12.8511C16.5236 12.8552 16.4326 12.8368 16.3571 12.7886C16.2807 12.7399 16.2347 12.6707 16.2086 12.6001C16.1603 12.469 16.1725 12.313 16.1832 12.2104C16.1979 12.068 16.1712 12.0204 16.149 11.9976C16.1171 11.9648 16.0502 11.9338 15.8971 11.9038C15.0368 11.7339 14.4386 11.105 14.3151 10.3198V10.3188C14.3015 10.2317 14.2859 10.1136 14.318 10.0063C14.3354 9.94814 14.3671 9.89187 14.4186 9.84521C14.4691 9.79955 14.5315 9.7691 14.6022 9.75049C14.744 9.71319 14.8715 9.73135 14.9723 9.81787C15.059 9.89247 15.1067 10.0035 15.1403 10.0942C15.3162 10.5703 15.5349 10.8575 15.8092 11.0054C16.0835 11.1533 16.4441 11.1785 16.9391 11.063L16.9449 11.061C17.1999 11.0118 17.4294 10.8745 17.5924 10.6724C17.7555 10.4701 17.8416 10.2163 17.8356 9.95654V9.95264C17.8356 9.43129 17.5073 8.99748 16.9244 8.8335C16.7642 8.78853 16.5986 8.75909 16.4235 8.7251C16.2511 8.69165 16.0704 8.65431 15.8951 8.59521C15.0309 8.30352 14.548 7.59912 14.5533 6.70557C14.5535 6.25426 14.6665 5.85674 14.8981 5.53564C15.1301 5.21402 15.4732 4.98041 15.9156 4.84424L16.0074 4.81104C16.0845 4.77806 16.1235 4.74426 16.1451 4.7124C16.1665 4.68074 16.1816 4.63519 16.1832 4.55908L16.1803 4.47217C16.172 4.37496 16.1625 4.23285 16.2047 4.10986C16.2273 4.04423 16.2662 3.97784 16.3317 3.92725C16.3972 3.87663 16.4782 3.85032 16.569 3.84424Z" fill="#FA8B02" stroke="#FA8B02" stroke-width="0.3"/>
<path d="M4.83411 20.5273L4.83313 20.5283C4.96181 20.5247 5.08988 20.5455 5.21008 20.5918C5.33446 20.6397 5.44807 20.7122 5.54309 20.8057C5.63809 20.8991 5.71285 21.0112 5.76282 21.1348C5.81133 21.2548 5.83484 21.3833 5.83313 21.5127C5.84026 21.6497 5.81867 21.7866 5.77063 21.915C5.72257 22.0435 5.64907 22.1611 5.55383 22.2598C5.45852 22.3584 5.34363 22.4368 5.21692 22.4893C5.09079 22.5414 4.95495 22.5666 4.81848 22.5645H4.8175L4.81653 22.5654V22.5645C4.22745 22.5633 3.80504 22.1053 3.81653 21.5107C3.81374 21.3797 3.83757 21.2495 3.88684 21.1279C3.937 21.0042 4.01187 20.8919 4.10754 20.7988C4.20322 20.7057 4.31746 20.6337 4.4425 20.5869C4.56751 20.5402 4.70085 20.5199 4.83411 20.5273ZM4.84583 21.2686C4.74005 21.2686 4.67732 21.297 4.64075 21.3311C4.6048 21.3646 4.57528 21.4219 4.57141 21.5195C4.56743 21.6199 4.59163 21.6811 4.62317 21.7168C4.65355 21.7512 4.70876 21.7826 4.81165 21.7861L4.82922 21.7881C4.86121 21.7928 4.89403 21.7898 4.92493 21.7803C4.95583 21.7707 4.98419 21.7544 5.00793 21.7324C5.03172 21.7104 5.05071 21.6835 5.06262 21.6533C5.07448 21.6233 5.07951 21.5908 5.07727 21.5586L5.07629 21.543L5.07825 21.5283C5.0825 21.4957 5.07912 21.4621 5.06946 21.4307C5.05978 21.3994 5.04335 21.3702 5.02161 21.3457C4.99987 21.3213 4.97336 21.3013 4.94348 21.2881C4.91349 21.2748 4.88057 21.2682 4.84778 21.2686H4.84583Z" fill="#FA8B02" stroke="#FA8B02" stroke-width="0.3"/>
</svg>
