<svg width="24" height="25" viewBox="0 0 24 25" fill="none" xmlns="http://www.w3.org/2000/svg">
<g opacity="0.8" clip-path="url(#clip0_1_1738)">
<path d="M21.6524 4.10791C21.826 4.09307 21.9805 4.11226 22.1046 4.19092C22.2745 4.29892 22.3573 4.49898 22.3848 4.77686C22.4188 5.1179 22.472 5.45743 22.5255 5.80029C22.5788 6.14227 22.6326 6.48771 22.6661 6.83545L22.6837 6.96436C22.7051 7.0781 22.7381 7.14949 22.7842 7.1958C22.8431 7.2548 22.9442 7.29233 23.1456 7.28857C23.3503 7.28467 23.5138 7.28475 23.6407 7.30127C23.7679 7.31784 23.8751 7.35363 23.9532 7.43408C24.0305 7.51389 24.0636 7.62262 24.0801 7.74951C24.0967 7.87667 24.0984 8.03992 24.0987 8.24268C24.0987 9.4234 24.0908 10.6024 24.0987 11.7817L24.0948 11.9399C24.0845 12.0941 24.0536 12.2347 23.9756 12.3491C23.8674 12.5079 23.684 12.5944 23.4122 12.6265H23.4112C23.0581 12.6651 22.7318 12.8333 22.4952 13.0981C22.2585 13.3631 22.1276 13.7068 22.129 14.062V14.0649C22.118 14.4282 22.2436 14.7826 22.4805 15.0581C22.6879 15.2992 22.968 15.4641 23.2764 15.5308L23.4102 15.5532L23.4131 15.5542C23.6589 15.5916 23.833 15.6743 23.9395 15.8237C24.0432 15.9693 24.0684 16.1588 24.0655 16.3735C24.0486 17.6089 24.0419 18.8434 24.0655 20.0776C24.0707 20.3552 24.0227 20.5716 23.876 20.7134C23.7307 20.8538 23.5124 20.8981 23.2393 20.897C19.4823 20.8801 15.7183 20.8862 11.9551 20.8862H0.831116C0.639959 20.8862 0.485157 20.8836 0.363342 20.8647C0.240919 20.8458 0.13734 20.8088 0.0606079 20.731C-0.0158892 20.6533 -0.0517649 20.5487 -0.0702515 20.4253C-0.0886818 20.3022 -0.0917358 20.1453 -0.0917358 19.9517C-0.0917346 18.7527 -0.0806113 17.5557 -0.0985718 16.3579C-0.102079 16.1311 -0.0655989 15.9431 0.0498657 15.8032C0.166055 15.6627 0.346007 15.5899 0.581116 15.5552L0.585022 15.5542C0.946102 15.5145 1.27964 15.3415 1.51862 15.0679C1.75767 14.7942 1.88435 14.4399 1.87506 14.0767V14.0737C1.87864 13.7184 1.75108 13.3739 1.51666 13.1069C1.28236 12.8401 0.958042 12.669 0.60553 12.6265H0.603577C0.359356 12.5923 0.18008 12.5166 0.0674438 12.3735C-0.0434228 12.2325 -0.0744744 12.0456 -0.0722046 11.8276C-0.0598469 10.5739 -0.0526883 9.31938 -0.0751343 8.06689C-0.0798316 7.81357 -0.0267137 7.61851 0.106506 7.479C0.237533 7.34184 0.430041 7.27594 0.66217 7.2417L9.85358 5.88623C12.9169 5.43233 15.9803 4.97646 19.043 4.51807C19.8535 4.3965 20.6662 4.28452 21.4727 4.1333L21.6524 4.10791ZM22.7979 8.19092C21.487 8.21003 20.1753 8.19775 18.8643 8.19775C18.6737 8.19775 18.5385 8.19826 18.4385 8.20947C18.3386 8.22072 18.2939 8.24164 18.2686 8.26611C18.2433 8.29082 18.2204 8.33589 18.2051 8.43701C18.19 8.53795 18.1849 8.67508 18.1778 8.86865C18.1734 8.99747 18.164 9.14834 18.1055 9.26904C18.075 9.3321 18.0304 9.38929 17.9649 9.43115C17.8997 9.47279 17.8205 9.49589 17.7276 9.50049C17.6345 9.5051 17.5526 9.48945 17.4835 9.45361C17.4139 9.41754 17.3635 9.36399 17.3282 9.30225C17.26 9.18314 17.2458 9.03032 17.2452 8.896L17.2413 8.72998C17.2399 8.67016 17.2393 8.60752 17.2452 8.54834L17.2491 8.44385C17.2449 8.35391 17.2185 8.30597 17.1866 8.27783C17.1378 8.23508 17.047 8.2095 16.8858 8.20947C14.2741 8.21284 11.6624 8.21436 9.05084 8.21436L1.21686 8.20947C1.05191 8.20949 0.970173 8.23527 0.926819 8.27588C0.885872 8.31441 0.855233 8.38987 0.858459 8.55713C0.876455 9.51233 0.874203 10.4696 0.858459 11.4243C0.858669 11.5595 0.884478 11.6365 0.926819 11.6899C0.971246 11.7459 1.04605 11.7914 1.17682 11.8384H1.17584C2.20982 12.2029 2.80436 13.0588 2.8067 14.106C2.80891 15.1548 2.22303 15.977 1.16803 16.3579C1.03279 16.4067 0.96195 16.455 0.921936 16.5103C0.882817 16.5644 0.861711 16.6417 0.864319 16.7778V16.7788C0.878902 17.6761 0.901648 18.5791 0.856506 19.4819C0.843968 19.7365 0.889117 19.8476 0.956116 19.9038C1.03005 19.9656 1.16157 19.9905 1.3985 19.9888C3.94716 19.9663 6.49382 19.977 9.03912 19.9771H16.7921C16.9722 19.9771 17.0814 19.9627 17.1465 19.9175C17.1992 19.8808 17.2456 19.8047 17.2383 19.6021C17.2354 19.5291 17.225 19.4505 17.2169 19.355C17.2091 19.2648 17.2041 19.1647 17.2178 19.0718C17.2317 18.9782 17.2656 18.881 17.3438 18.8081C17.423 18.7344 17.5338 18.6977 17.6739 18.6958L17.7803 18.7007C17.8807 18.7124 17.9632 18.7444 18.0274 18.7983C18.1131 18.8706 18.1517 18.97 18.168 19.0669C18.1841 19.1626 18.1804 19.2662 18.1739 19.3599C18.167 19.4586 18.1576 19.5427 18.1573 19.6187C18.1567 19.7777 18.179 19.8596 18.2178 19.9048C18.2529 19.9455 18.3234 19.9802 18.4932 19.978C19.9355 19.9612 21.3776 19.9636 22.8194 19.9771C22.9796 19.977 23.0643 19.9548 23.1114 19.9146C23.1536 19.8785 23.1888 19.8074 23.1856 19.6392C23.1676 18.6842 23.171 17.7272 23.1856 16.7729L23.1817 16.6821C23.1735 16.6006 23.1525 16.547 23.1221 16.5063C23.0809 16.4511 23.0098 16.4036 22.876 16.356H22.8751C22.3538 16.1688 21.9507 15.8769 21.6768 15.4917C21.4371 15.1543 21.2997 14.75 21.2657 14.2925L21.2579 14.0933C21.2485 13.0649 21.8468 12.2037 22.8799 11.8257C23.0232 11.7726 23.1022 11.7165 23.1475 11.6519C23.1922 11.5878 23.215 11.4998 23.213 11.3589C23.1983 10.4405 23.1927 9.52247 23.213 8.604V8.60303C23.2178 8.41353 23.185 8.32078 23.1348 8.271C23.084 8.22064 22.9889 8.18818 22.7979 8.19092ZM21.4532 5.15088C21.406 5.11784 21.3223 5.1031 21.1573 5.13037C20.0493 5.31485 18.9374 5.4679 17.8272 5.62842H17.8262C17.5959 5.66104 17.4304 5.68436 17.3087 5.71436C17.1868 5.74441 17.1269 5.77689 17.0928 5.81592C17.0596 5.85406 17.0374 5.91423 17.0294 6.03271C17.0213 6.15185 17.0283 6.31143 17.0391 6.53564C17.045 6.65683 17.0363 6.78511 16.9805 6.89111C16.9207 7.00454 16.8145 7.07876 16.6602 7.10205C16.5055 7.12533 16.3801 7.08464 16.2901 6.9917C16.2054 6.90426 16.162 6.7814 16.1397 6.65967V6.65869C16.1084 6.54454 16.0891 6.42736 16.084 6.30908V6.30127C16.0916 6.09196 16.0458 6.00847 15.9913 5.97119C15.9274 5.92782 15.8111 5.91578 15.6075 5.94775C13.4656 6.28488 11.319 6.59736 9.17584 6.91748C8.27946 7.0516 7.38368 7.18241 6.48932 7.31299H16.9005C18.4137 7.31299 19.9344 7.29929 21.4454 7.32178L21.5801 7.31689C21.6932 7.3055 21.7462 7.27579 21.7715 7.24365C21.7978 7.21014 21.8121 7.15146 21.8018 7.04346L21.7833 6.91748C21.6837 6.41973 21.6109 5.91584 21.5567 5.4126C21.5378 5.25111 21.4982 5.18249 21.4532 5.15088Z" fill="#FA8B02" stroke="#FA8B02" stroke-width="0.2"/>
<path d="M13.793 15.2148C13.793 15.3302 13.7694 15.4256 13.7198 15.501C13.6695 15.5774 13.5987 15.6239 13.5235 15.6514C13.4501 15.6781 13.37 15.6885 13.295 15.6924C13.2206 15.6962 13.141 15.6941 13.0743 15.6943H4.88092C4.81368 15.6943 4.7353 15.696 4.66022 15.6914C4.58473 15.6868 4.50404 15.6756 4.43073 15.6475C4.35598 15.6188 4.28625 15.5713 4.23737 15.4941C4.18897 15.4175 4.16712 15.3206 4.16998 15.2051C4.17262 15.0993 4.19787 15.0112 4.24713 14.9414C4.29674 14.8712 4.36447 14.8286 4.43561 14.8027C4.56982 14.754 4.73721 14.7598 4.86041 14.7598H13.1104C13.2349 14.7598 13.4018 14.7549 13.5352 14.8057C13.6059 14.8326 13.6727 14.877 13.7208 14.9482C13.7686 15.019 13.7921 15.1078 13.793 15.2139V15.2148Z" fill="#FA8B02" stroke="#FA8B02" stroke-width="0.2"/>
<path d="M13.0829 16.9966C13.1488 16.9966 13.229 16.9943 13.3036 16.9976C13.3792 17.0008 13.4601 17.0106 13.5341 17.0366C13.6098 17.0632 13.6819 17.1082 13.7324 17.1851C13.7822 17.261 13.8035 17.3574 13.8007 17.4731C13.7978 17.5895 13.7705 17.6854 13.7167 17.7593C13.6626 17.8335 13.5891 17.8765 13.5126 17.9009C13.4376 17.9247 13.3565 17.932 13.2812 17.9341C13.2084 17.9361 13.1264 17.9331 13.0634 17.9331H4.74994C4.62562 17.9291 4.48574 17.9124 4.37396 17.8481C4.25276 17.7784 4.17537 17.6588 4.16986 17.4819C4.16696 17.3875 4.18256 17.3053 4.21771 17.2358C4.25322 17.1657 4.30557 17.1145 4.36713 17.0786C4.48563 17.0098 4.63823 16.9966 4.77338 16.9966H13.0829Z" fill="#FA8B02" stroke="#FA8B02" stroke-width="0.2"/>
<path d="M13.1147 12.5229C13.2404 12.5229 13.4066 12.519 13.5395 12.5708C13.6097 12.5982 13.6752 12.6428 13.7231 12.7134C13.7707 12.7836 13.7957 12.8718 13.7983 12.9771C13.8008 13.0825 13.7794 13.1717 13.7338 13.2437C13.6879 13.316 13.623 13.3624 13.5532 13.3911C13.487 13.4183 13.4121 13.4315 13.3383 13.438L13.1284 13.4438C11.7262 13.4405 10.3244 13.439 8.9223 13.439H4.88519C4.82139 13.439 4.74214 13.441 4.6684 13.438C4.59331 13.4349 4.512 13.4261 4.43793 13.3999C4.36213 13.3731 4.2904 13.3268 4.24066 13.2485C4.19159 13.1713 4.17047 13.0732 4.17523 12.9556C4.17954 12.8505 4.20704 12.7632 4.25824 12.6948C4.30954 12.6265 4.3784 12.5853 4.44965 12.561C4.58441 12.5151 4.75229 12.5229 4.8725 12.5229H13.1147Z" fill="#FA8B02" stroke="#FA8B02" stroke-width="0.2"/>
<path d="M8.79321 10.2656C8.91612 10.2656 9.06977 10.2671 9.19263 10.3223C9.25723 10.3514 9.31629 10.3962 9.35864 10.4639C9.40058 10.5309 9.42206 10.6132 9.42407 10.71C9.42602 10.8066 9.40798 10.8901 9.36938 10.959C9.33034 11.0285 9.27373 11.0764 9.21021 11.1084C9.08892 11.1692 8.9352 11.1758 8.80884 11.1758H4.77759C4.65364 11.1758 4.49764 11.1712 4.37622 11.1104C4.31213 11.0781 4.25538 11.0291 4.21802 10.957C4.1812 10.8859 4.16704 10.8001 4.17407 10.7012L4.18286 10.6338C4.19448 10.569 4.21652 10.5123 4.24927 10.4639C4.29317 10.399 4.35181 10.355 4.41626 10.3262C4.53915 10.2712 4.68945 10.2688 4.81665 10.2715L6.83228 10.2656H8.79321Z" fill="#FA8B02" stroke="#FA8B02" stroke-width="0.2"/>
<path d="M17.7308 10.4385C17.8826 10.4474 17.9965 10.5117 18.0697 10.6162C18.1393 10.7158 18.1647 10.8421 18.1683 10.9668V10.9707C18.1672 11.3306 18.1654 11.6853 18.1654 12.04V13.1074C18.1618 13.2439 18.1313 13.381 18.0502 13.4844C17.9649 13.593 17.835 13.6505 17.6674 13.6445H17.6664C17.509 13.6376 17.394 13.5707 17.3226 13.4629C17.272 13.3864 17.2477 13.2952 17.2386 13.2031L17.2338 13.1113C17.2293 12.4012 17.2293 11.6896 17.2338 10.9766L17.2396 10.875C17.2511 10.7739 17.2816 10.6769 17.3422 10.5986C17.4272 10.4888 17.5585 10.4318 17.7289 10.4385H17.7308Z" fill="#FA8B02" stroke="#FA8B02" stroke-width="0.2"/>
<path d="M17.7233 14.5635C17.8964 14.573 18.0169 14.6486 18.0876 14.7686C18.1534 14.8804 18.1696 15.0199 18.1696 15.1494L18.1657 16.1562V17.2217C18.1655 17.3565 18.1375 17.4935 18.0583 17.5986C17.9751 17.7088 17.846 17.7695 17.6765 17.7695H17.6735C17.5144 17.7653 17.399 17.7003 17.3268 17.5928C17.2591 17.4915 17.2371 17.3637 17.2341 17.2441V17.2422C17.2273 16.5316 17.2273 15.8212 17.2341 15.1113C17.2342 14.9777 17.2601 14.8376 17.3376 14.7305C17.42 14.6166 17.5505 14.554 17.7233 14.5635Z" fill="#FA8B02" stroke="#FA8B02" stroke-width="0.2"/>
</g>
<defs>
<clipPath id="clip0_1_1738">
<rect width="24" height="24" fill="white" transform="translate(0 0.5)"/>
</clipPath>
</defs>
</svg>
