<svg width="24" height="25" viewBox="0 0 24 25" fill="none" xmlns="http://www.w3.org/2000/svg">
<g opacity="0.8" clip-path="url(#clip0_1_1668)">
<path d="M0.708008 5.2041C4.48692 5.22062 8.26397 5.21289 12.0479 5.21289H23.2227C23.4076 5.21289 23.5568 5.21397 23.6719 5.22949C23.7867 5.245 23.8861 5.27645 23.959 5.34961C24.0318 5.42297 24.0631 5.52306 24.0781 5.6377C24.0932 5.7524 24.0938 5.90056 24.0938 6.08398C24.0937 7.00323 24.0809 7.91788 24.0996 8.83496C24.1036 9.03624 24.0761 9.20812 23.9805 9.34668C23.9083 9.45118 23.8039 9.52794 23.668 9.58691L23.5215 9.63965C22.1497 10.0677 21.3391 11.1757 21.3496 12.5264C21.3603 13.851 22.1709 14.9376 23.5225 15.3594L23.6553 15.4062C23.7813 15.4575 23.885 15.5237 23.9609 15.6172C24.0638 15.7439 24.1031 15.9061 24.0996 16.1094C24.082 17.0995 24.0798 18.0894 24.0996 19.0791C24.1048 19.3156 24.0615 19.5048 23.9316 19.6309C23.8031 19.7556 23.6126 19.7959 23.3818 19.7959C15.8035 19.7886 8.22485 19.7886 0.646484 19.7959C0.403107 19.7959 0.203482 19.7545 0.0703125 19.625C-0.0641439 19.4941 -0.10659 19.2973 -0.0986328 19.0488L-0.0859375 18.3213C-0.0784199 17.5935 -0.0854275 16.8645 -0.0986328 16.1357L-0.0996094 16.1338C-0.0996063 15.9434 -0.0702669 15.782 0.0205078 15.6504C0.111916 15.518 0.255203 15.4316 0.451172 15.3682L0.452148 15.3672C1.84611 14.9343 2.65723 13.8488 2.65723 12.502C2.65716 11.1553 1.8476 10.072 0.458008 9.63477C0.259529 9.57289 0.114443 9.48604 0.0224609 9.35254C-0.0687256 9.22015 -0.0966726 9.05705 -0.0966797 8.86719V8.86523C-0.0757601 7.91064 -0.0637397 6.95655 -0.0966797 6.00781C-0.105167 5.73396 -0.0619702 5.52082 0.0820312 5.38184C0.224295 5.24462 0.440208 5.20411 0.708008 5.2041ZM18.0537 6.06641C17.8854 6.06028 17.7461 6.08133 17.6348 6.16699C17.5713 6.21583 17.5532 6.2968 17.5615 6.4375C17.5659 6.51117 17.5746 6.5717 17.5811 6.65527C17.5869 6.73095 17.5896 6.8136 17.5762 6.89258C17.5576 7.00371 17.5203 7.11307 17.4453 7.19434C17.3664 7.27981 17.2561 7.32306 17.1191 7.31836C16.997 7.31417 16.8981 7.26882 16.8271 7.18945C16.7584 7.11256 16.7237 7.01177 16.71 6.9082V6.90723C16.6892 6.79092 16.6843 6.67224 16.6963 6.55469V6.5498H16.6973C16.7309 6.32531 16.691 6.22661 16.6318 6.17578C16.5632 6.11693 16.4336 6.08819 16.209 6.08984C13.7312 6.11297 11.2529 6.10254 8.77637 6.10254C6.26333 6.10254 3.74746 6.1115 1.2334 6.09277C1.02829 6.09119 0.929786 6.12444 0.878906 6.17578C0.828886 6.22639 0.798487 6.32192 0.807617 6.52148C0.837535 7.14755 0.831925 7.77684 0.807617 8.40332C0.8021 8.56275 0.828964 8.66636 0.881836 8.74414C0.935691 8.82322 1.02667 8.89003 1.17969 8.95605H1.17871C2.5329 9.53384 3.33455 10.5881 3.51074 12.0439C3.69252 13.5442 3.1999 14.9454 1.85352 15.6289C1.3201 15.8999 1.04661 16.2063 0.911133 16.5518C0.773662 16.9025 0.772863 17.308 0.813477 17.791H0.8125C0.835051 17.9984 0.835234 18.2077 0.8125 18.415V18.418C0.779011 18.6561 0.818698 18.7633 0.881836 18.8193C0.952991 18.8825 1.08698 18.9141 1.32617 18.9131H1.32715C6.11662 18.8955 10.9107 18.9036 15.6953 18.9014C15.781 18.9014 15.8689 18.9054 15.9541 18.9102C16.0402 18.915 16.1238 18.92 16.2051 18.9209C16.3692 18.9226 16.5106 18.9076 16.624 18.8525C16.6654 18.8325 16.6873 18.8044 16.7002 18.7666C16.7145 18.7242 16.7183 18.6681 16.7148 18.5957C16.7111 18.518 16.7017 18.451 16.6953 18.3613C16.6896 18.2804 16.6873 18.1918 16.7051 18.1084L16.7256 18.0283C16.7487 17.949 16.7824 17.8724 16.8369 17.8115C16.9146 17.7249 17.0239 17.6807 17.1631 17.6875C17.3027 17.6943 17.4085 17.7509 17.4785 17.8447C17.5448 17.9338 17.5712 18.0465 17.5791 18.1562L17.5898 18.3828C17.591 18.4583 17.5896 18.5339 17.5859 18.6094V18.6104C17.5781 18.7379 17.5971 18.8059 17.6279 18.8428C17.6561 18.8765 17.7151 18.9077 17.8535 18.9072C19.5426 18.8984 21.2318 18.8974 22.9209 18.9062C23.0571 18.9062 23.1185 18.8808 23.1494 18.8486C23.1811 18.8155 23.2047 18.7518 23.2031 18.6182C23.1932 17.9029 23.1921 17.1852 23.2031 16.4707C23.2031 16.353 23.1773 16.2837 23.1367 16.2334C23.115 16.2066 23.0866 16.182 23.0498 16.1582L22.9111 16.0869C22.1263 15.7505 21.5168 15.2786 21.1045 14.6738C20.6919 14.0686 20.4806 13.3364 20.4834 12.4863C20.4835 11.6477 20.6969 10.9235 21.1074 10.3252C21.5178 9.72725 22.1214 9.26107 22.8926 8.93066C23.0292 8.87211 23.1034 8.81157 23.1455 8.74414C23.1877 8.67645 23.2066 8.58727 23.2041 8.45117L23.1914 7.45703C23.1904 7.12589 23.194 6.79447 23.2051 6.46289V6.46191C23.2114 6.28619 23.1792 6.20621 23.1357 6.16504C23.0901 6.12193 23.0039 6.09454 22.8301 6.09668C21.4188 6.11208 19.9984 6.09656 18.5908 6.10645H18.5898C18.4986 6.10643 18.4048 6.09798 18.3154 6.08887C18.2245 6.07959 18.1378 6.06949 18.0537 6.06641Z" fill="#FA8B02" stroke="#FA8B02" stroke-width="0.2"/>
<path d="M12.7665 9.00293C12.9008 8.96959 13.0353 9.00817 13.1601 9.13086C13.2214 9.1912 13.2636 9.25592 13.2841 9.3252C13.3047 9.395 13.3018 9.46313 13.2841 9.52637C13.2499 9.64783 13.1599 9.75359 13.0751 9.83789C12.2043 10.7028 11.3328 11.5687 10.4628 12.4365L10.4638 12.4375C9.32191 13.5794 8.18008 14.7214 7.03896 15.8633H7.03799C6.92083 15.9794 6.77555 16.1677 6.50088 16.1914L6.48623 16.1934L6.47158 16.1904C6.33137 16.161 6.19508 16.1006 6.12197 15.9854C6.04418 15.8624 6.05803 15.7111 6.14346 15.5488L6.14834 15.54L6.22549 15.4336C6.30584 15.3295 6.39728 15.2343 6.49892 15.1504C8.44198 13.2051 10.3855 11.2607 12.33 9.31836L12.3319 9.31641L12.4501 9.20605C12.538 9.11956 12.6444 9.03324 12.7665 9.00293Z" fill="#FA8B02" stroke="#FA8B02" stroke-width="0.2"/>
<path d="M7.4416 8.625C7.66068 8.62499 7.87791 8.66699 8.08027 8.75098C8.28284 8.83507 8.4665 8.95886 8.62128 9.11426C8.77613 9.26975 8.89934 9.4542 8.98261 9.65723C9.04511 9.80963 9.08448 9.97038 9.0998 10.1338L9.10664 10.2979C9.1041 10.5188 9.0578 10.7372 8.97089 10.9404C8.88403 11.1435 8.75872 11.328 8.60078 11.4824C8.44271 11.6369 8.25514 11.7586 8.05 11.8408C7.84487 11.923 7.62546 11.9645 7.40449 11.9619C7.18355 11.9594 6.96506 11.9131 6.76191 11.8262C6.55879 11.7393 6.37434 11.6131 6.21992 11.4551C6.06559 11.2971 5.9437 11.1103 5.86152 10.9053C5.77932 10.7002 5.7389 10.4807 5.7414 10.2598V10.2588C5.74522 10.0396 5.7924 9.82302 5.88007 9.62207C5.96775 9.42124 6.09413 9.23972 6.25214 9.08789C6.41021 8.93603 6.59673 8.81688 6.80097 8.7373C7.00525 8.65776 7.22341 8.61908 7.44257 8.62402L7.4416 8.625ZM7.44257 9.50391C7.23434 9.49971 7.03329 9.57844 6.883 9.72266C6.73264 9.86697 6.64509 10.0651 6.64082 10.2734C6.63662 10.4815 6.71552 10.6828 6.85957 10.833C7.00382 10.9833 7.20208 11.0708 7.41035 11.0752C7.51337 11.0773 7.61609 11.0589 7.7121 11.0215C7.80819 10.984 7.89647 10.9279 7.97089 10.8564C8.04534 10.785 8.10524 10.699 8.14668 10.6045C8.18797 10.5102 8.20996 10.4086 8.2121 10.3057C8.21422 10.2026 8.19587 10.1 8.15839 10.0039C8.12087 9.90778 8.06481 9.81957 7.99335 9.74512C7.92193 9.67075 7.83681 9.61074 7.74238 9.56934C7.64788 9.52791 7.54573 9.50602 7.44257 9.50391Z" fill="#FA8B02" stroke="#FA8B02" stroke-width="0.2"/>
<path d="M11.8028 13.0083C12.2446 13.0141 12.6671 13.1919 12.9796 13.5044C13.2919 13.8168 13.4699 14.2394 13.4756 14.6812C13.4776 14.9003 13.4358 15.1176 13.3536 15.3208C13.2713 15.5239 13.15 15.7088 12.9962 15.8647C12.8422 16.0208 12.6582 16.145 12.4561 16.23C12.2547 16.3146 12.0388 16.3587 11.8204 16.3599C11.6014 16.3665 11.3831 16.3294 11.1788 16.2505C10.9744 16.1715 10.7876 16.053 10.6299 15.9009C10.4722 15.7486 10.347 15.5654 10.2608 15.3638C10.1747 15.1622 10.129 14.9452 10.128 14.7261H10.129C10.122 14.5032 10.1598 14.2808 10.2403 14.0728C10.3211 13.8641 10.4428 13.6737 10.5987 13.5132C10.7549 13.3525 10.9428 13.2249 11.1495 13.1382C11.3561 13.0515 11.5778 13.0072 11.8018 13.0083H11.8028ZM11.7891 13.9126C11.6841 13.9125 11.5801 13.9341 11.4835 13.9751C11.3868 14.0161 11.2995 14.0763 11.2266 14.1519C11.1537 14.2275 11.0961 14.3173 11.0587 14.4155C11.0213 14.5133 11.0041 14.6176 11.0079 14.7222L11.0303 14.8726C11.0667 15.0194 11.1443 15.154 11.2549 15.2603C11.402 15.4015 11.597 15.4807 11.8008 15.4839C11.9051 15.4825 12.008 15.4613 12.1036 15.4194C12.1993 15.3775 12.2856 15.3167 12.3575 15.2407C12.4293 15.1648 12.485 15.075 12.5215 14.9771C12.5489 14.9038 12.5658 14.8272 12.5704 14.7495V14.6675C12.5689 14.567 12.5477 14.4678 12.5079 14.3755C12.4679 14.283 12.4103 14.1986 12.338 14.1284C12.2656 14.0583 12.1797 14.0033 12.086 13.9663C11.9922 13.9293 11.8919 13.9108 11.7911 13.9126H11.7891Z" fill="#FA8B02" stroke="#FA8B02" stroke-width="0.2"/>
<path d="M17.5872 12.5854L17.5765 12.5874C17.5789 12.7592 17.5873 12.9445 17.5755 13.1216C17.5677 13.2395 17.5249 13.3528 17.4437 13.4341C17.3604 13.5172 17.2443 13.5581 17.1087 13.5444C16.9757 13.5309 16.8708 13.4743 16.8011 13.3823C16.7335 13.293 16.706 13.1798 16.7035 13.0649C16.6946 12.6976 16.6957 12.33 16.7035 11.9644C16.7038 11.843 16.7299 11.7175 16.7992 11.6187C16.8723 11.5143 16.9874 11.4501 17.14 11.4487C17.2907 11.4475 17.4067 11.506 17.4827 11.6079C17.5551 11.7049 17.5836 11.831 17.5872 11.9556V12.5854Z" fill="#FA8B02" stroke="#FA8B02" stroke-width="0.2"/>
<path d="M17.1285 8.33789C17.2639 8.33721 17.3755 8.385 17.4528 8.47266C17.5278 8.55804 17.5621 8.67136 17.566 8.78809C17.5805 9.17297 17.5793 9.55905 17.566 9.94336C17.5655 10.0672 17.5343 10.1907 17.4557 10.2832C17.394 10.3557 17.3099 10.4016 17.2076 10.417L17.0992 10.4219C16.9578 10.4144 16.8521 10.3568 16.7838 10.2617C16.7192 10.1716 16.6951 10.0583 16.6891 9.95117C16.6833 9.84773 16.6863 9.75255 16.6901 9.66211C16.6939 9.57084 16.6983 9.48707 16.6989 9.39844L16.6949 9.09863C16.6937 8.99688 16.6938 8.89401 16.6989 8.79297C16.7045 8.6795 16.7364 8.56622 16.8082 8.47949C16.8826 8.38968 16.9918 8.33868 17.1285 8.33789Z" fill="#FA8B02" stroke="#FA8B02" stroke-width="0.2"/>
<path d="M17.1611 14.5938C17.1631 14.5938 17.1659 14.5936 17.1679 14.5938H17.1698L17.1689 14.5947C17.3057 14.603 17.4097 14.6571 17.4784 14.749C17.5448 14.8379 17.5701 14.9501 17.5761 15.0586C17.5873 15.2608 17.5801 15.4601 17.579 15.6582L17.578 16.2139V16.2158C17.5706 16.3284 17.5393 16.4406 17.4687 16.5273C17.3951 16.6176 17.287 16.6711 17.1503 16.6738C17.0148 16.6765 16.9033 16.6295 16.8251 16.543C16.7491 16.4588 16.7133 16.3463 16.707 16.2305V16.2285C16.6937 15.8255 16.6937 15.4228 16.707 15.0205C16.7042 14.9632 16.7135 14.9061 16.7343 14.8525C16.7564 14.7957 16.7906 14.744 16.8349 14.7021C16.8792 14.6604 16.9322 14.6291 16.9902 14.6104C17.0453 14.5925 17.1035 14.5875 17.1611 14.5938Z" fill="#FA8B02" stroke="#FA8B02" stroke-width="0.2"/>
</g>
<defs>
<clipPath id="clip0_1_1668">
<rect width="24" height="24" fill="white" transform="translate(0 0.5)"/>
</clipPath>
</defs>
</svg>
