<svg width="24" height="25" viewBox="0 0 24 25" fill="none" xmlns="http://www.w3.org/2000/svg">
<g clip-path="url(#clip0_1_1793)">
<path d="M12.0082 0.950195C13.5937 0.951389 15.1381 1.44166 16.431 2.35059L16.6869 2.53809L16.9369 2.74023C18.1627 3.77501 19.0404 5.16611 19.4457 6.72363C19.8779 8.38495 19.748 10.1428 19.0765 11.7227C18.46 13.1717 17.5276 14.4135 16.5873 15.6445C16.1026 16.2791 15.6164 16.9165 15.1068 17.5332C15.0431 17.6103 14.997 17.6735 14.9691 17.7246C14.9409 17.7765 14.9366 17.8077 14.9418 17.8271C14.9464 17.8446 14.9631 17.8672 15.015 17.8906C15.0667 17.9139 15.1446 17.9339 15.2552 17.9521L15.6332 18.0166C16.5106 18.1807 17.3615 18.4455 18.1566 18.8828C18.5472 19.0844 18.9007 19.3525 19.1996 19.6748L19.2006 19.6758C19.5243 20.0424 19.688 20.4524 19.6849 20.8633C19.6818 21.2742 19.512 21.6809 19.181 22.042C18.5664 22.7134 17.7628 23.075 16.933 23.3389C14.8824 23.9889 12.7743 24.1535 10.642 23.9932C9.15741 23.881 7.68657 23.6604 6.30505 23.0391V23.0381C5.82372 22.8381 5.37949 22.5582 4.99255 22.209L4.99158 22.208C4.54937 21.7831 4.32219 21.3128 4.32361 20.8398C4.32516 20.3667 4.55553 19.8996 5.00818 19.4814C5.69328 18.848 6.53588 18.5055 7.4115 18.2607L7.83923 18.1436C8.24937 18.0391 8.67573 17.9478 9.12634 17.8428C8.55626 17.1102 8.00868 16.4129 7.46716 15.7109C6.56125 14.5362 5.66311 13.3513 5.03552 11.9873L4.91345 11.7119C4.24768 10.1295 4.12322 8.3712 4.55994 6.71094C4.99667 5.05073 5.97033 3.58122 7.32849 2.53125C8.67242 1.50455 10.317 0.949018 12.0082 0.950195ZM14.5072 18.833C14.359 18.8073 14.2474 18.8203 14.1537 18.8652C14.0592 18.9106 13.9769 18.9914 13.8929 19.1123C13.4506 19.7388 12.986 20.3497 12.5306 20.9639C12.4369 21.0905 12.3476 21.1879 12.2601 21.2539C12.1723 21.3201 12.0834 21.3559 11.9906 21.3545C11.8979 21.353 11.8088 21.3147 11.7211 21.2461C11.6337 21.1777 11.5447 21.0773 11.4506 20.9482C11.1949 20.5997 10.9403 20.2476 10.6849 19.8984C10.4653 19.5979 10.3028 19.3752 10.1586 19.2139C10.0148 19.0531 9.89303 18.9578 9.7572 18.9072C9.62128 18.8566 9.46534 18.8485 9.24841 18.875C9.03086 18.9016 8.75765 18.9615 8.38904 19.043C7.60363 19.2175 6.84389 19.4469 6.16345 19.8633L5.87732 20.0537C5.49541 20.3281 5.3204 20.6048 5.32361 20.8691C5.327 21.1335 5.50905 21.4083 5.89685 21.6787H5.89587C6.33322 21.976 6.81227 22.2067 7.31677 22.3652V22.3662C8.83079 22.854 10.3941 23.016 11.9789 23.0449L12.6761 23.0332C13.373 23.0063 14.0678 22.9356 14.7562 22.8213L14.7572 22.8203C15.2625 22.7492 15.7621 22.6416 16.2513 22.498L16.7367 22.3428C17.3168 22.1321 17.8797 21.8969 18.3334 21.4795C18.5581 21.2727 18.6668 21.06 18.6674 20.8535C18.6678 20.6475 18.561 20.4349 18.3275 20.2275V20.2266C18.1686 20.0903 17.9986 19.9676 17.8197 19.8594L17.6371 19.7559C16.6657 19.2206 15.5936 19.0201 14.5072 18.833ZM12.4984 1.96289C10.814 1.83981 9.14531 2.358 7.82654 3.41309C6.50775 4.46822 5.63659 5.98292 5.38708 7.65332C5.11134 9.54368 5.59132 11.2631 6.63123 12.8408C7.42964 14.0504 8.31768 15.1928 9.21423 16.3311C10.1105 17.4689 11.0158 18.6034 11.847 19.793H11.848C11.9296 19.9105 11.9792 19.9248 12.0092 19.9189C12.0272 19.9154 12.0501 19.9035 12.0775 19.877C12.1047 19.8506 12.1333 19.8137 12.1654 19.7676C12.3848 19.453 12.6189 19.1467 12.8451 18.8389C13.565 17.8578 14.3294 16.9097 15.0795 15.9541C15.8299 14.998 16.5662 14.0334 17.2338 13.0176L17.5482 12.5156C18.2469 11.336 18.7006 10.0917 18.6703 8.8125V8.81152C18.6703 5.25269 16.1555 2.41539 12.8236 1.99609L12.4984 1.96289Z" fill="#FA8B02" stroke="#FA8B02" stroke-width="0.1"/>
<path d="M12.0029 5.4458C12.4214 5.44667 12.8362 5.52995 13.2226 5.69092C13.6087 5.85185 13.9596 6.08693 14.2548 6.3833C14.5502 6.67986 14.7839 7.03242 14.9433 7.41943C15.1026 7.80634 15.1844 8.22074 15.1835 8.63916C15.1818 9.48444 14.844 10.2947 14.2451 10.8911C13.6462 11.4874 12.8352 11.8215 11.9902 11.8198C11.1449 11.8181 10.3347 11.4803 9.73822 10.8813C9.14192 10.2825 8.80785 9.47156 8.80951 8.62646C8.81126 7.78132 9.14824 6.97095 9.74701 6.37451C10.0436 6.07917 10.3961 5.8454 10.7831 5.68604C11.1701 5.52672 11.5844 5.44496 12.0029 5.4458ZM11.9765 6.44775C11.3972 6.45357 10.8441 6.68944 10.4384 7.10303C10.0326 7.5169 9.80771 8.07519 9.81342 8.65479C9.81913 9.23436 10.0548 9.78806 10.4687 10.1938C10.8824 10.5994 11.4402 10.8244 12.0195 10.8188C12.5989 10.8131 13.1528 10.5772 13.5585 10.1636C13.9643 9.74973 14.1892 9.19138 14.1835 8.61182C14.1778 8.03222 13.9421 7.47856 13.5283 7.07275C13.1144 6.66703 12.556 6.44205 11.9765 6.44775Z" fill="#FA8B02" stroke="#FA8B02" stroke-width="0.1"/>
</g>
<defs>
<clipPath id="clip0_1_1793">
<rect width="24" height="24" fill="white" transform="translate(0 0.5)"/>
</clipPath>
</defs>
</svg>
