<svg width="61" height="60" viewBox="0 0 61 60" fill="none" xmlns="http://www.w3.org/2000/svg">
<path d="M25.0996 18.4514C26.56 17.9376 27.7017 18.7734 28.5898 19.6565C29.843 20.9045 30.424 22.5198 30.6816 24.1624V24.1633C31.1713 27.3607 31.0684 30.5581 29.6221 33.5452L29.4775 33.8333C29.3789 34.0256 29.3206 34.1645 29.2949 34.2649C29.2684 34.3685 29.2883 34.386 29.2812 34.3743C29.2734 34.3613 29.2768 34.3855 29.377 34.4084C29.4752 34.431 29.6232 34.4425 29.8389 34.4407C33.7739 34.408 37.6802 34.4636 41.6094 34.4084C42.3933 34.3969 43.126 34.4961 43.75 34.802C44.3814 35.1115 44.8836 35.6234 45.2139 36.4006L45.3193 36.6731C45.5401 37.3062 45.5822 37.9267 45.4355 38.512C45.268 39.1807 44.8595 39.78 44.2373 40.2883L44.2383 40.2893C44.066 40.4302 44.0575 40.4998 44.0576 40.5334C44.0578 40.5616 44.0651 40.603 44.0908 40.6682C44.117 40.7346 44.1559 40.8098 44.207 40.9094L44.376 41.2581C44.7379 42.0583 44.8669 42.7684 44.7021 43.4407C44.5145 44.2062 43.9593 44.866 43.0811 45.5295H43.0801C42.895 45.668 42.8495 45.7333 42.8359 45.7776C42.8236 45.8179 42.8212 45.8981 42.9111 46.1194L42.9121 46.1233C43.3235 47.1799 43.446 48.048 43.1611 48.8137C42.877 49.577 42.2101 50.178 41.1953 50.7561L41.1934 50.7571C40.9843 50.8739 40.9579 50.9385 40.9512 50.9651C40.9386 51.0154 40.9501 51.0981 41.0225 51.3274L41.0967 51.5823C41.4338 52.8474 41.2599 53.985 40.6396 54.8274C40.0195 55.6694 38.9833 56.1754 37.6758 56.2375L37.4102 56.2444C31.8143 56.2444 26.2227 56.2315 20.6309 56.259H20.6299C20.1455 56.259 19.7006 56.114 19.3096 55.9827C18.9041 55.8464 18.5651 55.7294 18.2314 55.7258C18.1043 55.7261 18.0185 55.7719 17.9385 55.8586C17.8473 55.9575 17.7707 56.1026 17.6797 56.2952C17.5944 56.4757 17.496 56.699 17.3682 56.8958C17.2372 57.0972 17.0629 57.292 16.8086 57.4143L16.8076 57.4133C16.2151 57.7093 15.5627 57.8659 14.9004 57.8694H4.75391C3.7151 57.8628 2.8948 57.5994 2.33398 57.0305C1.77431 56.4625 1.51467 55.6322 1.50293 54.5823V35.2942C1.50293 34.0521 1.7296 33.1283 2.3252 32.5227C2.92188 31.9161 3.83256 31.6858 5.05371 31.6858C8.22941 31.6858 11.3989 31.7102 14.5674 31.6702H14.5684C15.3273 31.6599 16.037 31.7564 16.6299 32.0706C17.2321 32.3897 17.6902 32.9211 17.9639 33.7288C18.0199 33.894 18.0714 33.9532 18.0938 33.9709C18.1021 33.9776 18.1055 33.9811 18.1309 33.9758C18.1707 33.9675 18.2265 33.9412 18.3096 33.8909C18.3767 33.8501 18.485 33.7786 18.5732 33.7327L18.833 33.592C21.4778 32.1062 22.7574 29.689 23.2656 26.7092C23.5521 25.0348 23.5123 23.3547 23.5527 21.6282C23.5661 21.061 23.5647 20.401 23.7471 19.8274C23.9368 19.2309 24.3269 18.7198 25.0996 18.4514ZM11.5654 33.2795C11.0849 33.2399 10.9028 33.3296 10.8174 33.4338C10.7402 33.5283 10.6939 33.6857 10.6787 33.9495L10.6738 34.2502V34.2512C10.7214 37.4219 10.691 40.5966 10.6885 43.7717C10.6967 44.115 10.6833 44.4586 10.6475 44.8L10.6455 44.7991C10.6362 44.9822 10.5634 45.1564 10.4365 45.2893C10.3101 45.4215 10.1405 45.5016 9.95898 45.5198L9.95996 45.5217C9.85044 45.5395 9.73846 45.532 9.63184 45.5012C9.52504 45.4704 9.42608 45.4166 9.34277 45.343C9.25943 45.2694 9.19319 45.1777 9.14941 45.0754C9.10669 44.9755 9.08579 44.8676 9.08887 44.759C9.05638 44.4267 9.0421 44.0929 9.04883 43.759C9.04883 40.5515 9.02648 37.3359 9.06152 34.1243C9.0615 33.7262 8.99381 33.5377 8.89941 33.4417C8.83179 33.3729 8.71605 33.3168 8.49707 33.301L8.24121 33.3C7.11987 33.3526 5.95275 33.2995 4.85742 33.3167L4.8584 33.3176C4.12462 33.3312 3.72836 33.4511 3.50195 33.678C3.27656 33.9041 3.15847 34.2975 3.15723 35.0315C3.14387 41.5428 3.14387 48.0485 3.15723 54.5481V54.5491C3.15724 55.2663 3.28349 55.6678 3.5166 55.9006C3.75004 56.1335 4.15113 56.2576 4.8623 56.26C8.11239 56.275 11.3678 56.275 14.6279 56.26H14.6289C15.4193 56.26 15.841 56.1319 16.0811 55.884C16.3235 55.6337 16.444 55.1972 16.4453 54.3987L16.4375 44.7639V35.2463C16.4375 34.3756 16.3281 33.9269 16.0898 33.676C15.8549 33.4289 15.4312 33.3088 14.5889 33.3C13.6091 33.3001 12.5796 33.3632 11.5654 33.2795ZM26.9443 20.4524C26.498 20.1182 26.1064 19.9013 25.6816 20.0667C25.4562 20.1571 25.3607 20.3026 25.3105 20.4934C25.2529 20.7133 25.2624 20.9527 25.2471 21.2463V21.2473C25.1536 22.9249 25.1937 24.6845 24.9951 26.384C24.5214 30.4872 22.6366 33.7407 18.7275 35.5325L18.7285 35.5334C18.4047 35.6835 18.2693 35.8581 18.2012 36.0442C18.1254 36.2516 18.1221 36.4974 18.1221 36.8264V52.4749C18.1221 53.2035 18.2727 53.6943 18.5615 54.0256C18.8486 54.3549 19.3092 54.5696 20.0244 54.6653C20.3052 54.689 20.5876 54.6954 20.8691 54.6829L20.8779 54.6819L29.0127 54.6272H29.0146C31.8542 54.6272 34.6899 54.6422 37.5293 54.6272H37.5303C38.8192 54.6272 39.6992 53.7847 39.7275 52.7288C39.7419 52.1925 39.5533 51.7886 39.209 51.511C38.856 51.2265 38.3113 51.0531 37.583 51.0471C35.5872 51.0322 33.5751 51.0473 31.5732 51.0198C31.4537 51.0198 31.3503 51.0288 31.1973 51.0325C31.0611 51.0357 30.9056 51.0333 30.7588 51.0012C30.6096 50.9686 30.4508 50.9008 30.3301 50.76C30.2083 50.618 30.1513 50.4319 30.1475 50.2131C30.1436 49.9956 30.1923 49.8074 30.3057 49.6604C30.4186 49.5141 30.5726 49.4384 30.7207 49.3987C30.8663 49.3596 31.0221 49.3508 31.1602 49.3499C31.23 49.3494 31.2997 49.3513 31.3643 49.3528C31.4303 49.3543 31.491 49.355 31.5479 49.3547H31.5498C34.2597 49.3547 36.9713 49.3547 39.6826 49.3372H39.6846C40.3791 49.3371 40.8793 49.1663 41.2012 48.887C41.517 48.6128 41.6934 48.2068 41.6885 47.6624L41.6758 47.4739C41.6295 47.0485 41.4577 46.7199 41.1855 46.4866C40.8699 46.2161 40.3909 46.0486 39.7412 46.0403H39.7402C38.1571 46.0178 36.5781 46.0403 34.9854 46.0403C34.8649 46.0403 34.7664 46.0495 34.6113 46.053C34.4758 46.056 34.3194 46.0534 34.1729 46.0188C34.0232 45.9834 33.8641 45.9103 33.749 45.76C33.6343 45.61 33.5892 45.4168 33.5967 45.1936H33.5957C33.6027 44.9767 33.6632 44.7928 33.7852 44.6526C33.9058 44.5141 34.0634 44.4464 34.2119 44.4124C34.3582 44.3788 34.5131 44.3738 34.6494 44.3752C34.8039 44.3769 34.9063 44.3843 35.0283 44.3831H35.0293C36.9912 44.3705 38.9553 44.3831 40.9141 44.3831C41.7076 44.383 42.2377 44.2358 42.5684 43.9768C42.8866 43.7274 43.0614 43.3412 43.0684 42.7551C43.0752 42.172 42.9019 41.7677 42.584 41.5002C42.2976 41.2595 41.8631 41.1025 41.2529 41.0598L40.9805 41.0491H35.3486C35.1364 41.0491 34.8781 41.0262 34.6738 40.8997C34.5658 40.8327 34.4734 40.7371 34.4141 40.6077C34.3703 40.5122 34.349 40.4064 34.3457 40.2932L34.3477 40.177C34.3559 40.0324 34.3953 39.9027 34.4697 39.7942C34.5452 39.6844 34.6458 39.6124 34.749 39.5657C34.9416 39.4786 35.1738 39.4684 35.3359 39.4602H35.3379C35.6347 39.4474 35.9478 39.4592 36.2256 39.4592C38.1865 39.4592 40.1466 39.46 42.1064 39.4475H42.1084C42.4832 39.4475 42.8093 39.379 43.0742 39.2336C43.3351 39.0905 43.5511 38.8643 43.6992 38.5188L43.7041 38.509L43.7539 38.3958C43.8608 38.1276 43.8992 37.8361 43.8652 37.5481C43.8264 37.2193 43.6949 36.908 43.4854 36.6516L43.4814 36.6477C43.0372 36.0777 42.4071 36.0754 41.623 36.0754H28.2256C28.1359 36.0755 28.0611 36.0799 27.9521 36.0823C27.8536 36.0844 27.7423 36.0837 27.6309 36.0667C27.3955 36.0306 27.1563 35.921 26.9932 35.6438C26.8273 35.3619 26.8569 35.0968 26.9561 34.8752C27.0434 34.6802 27.2019 34.4908 27.2891 34.3694C29.5922 31.1301 29.6111 27.5065 28.9492 23.7493L28.9482 23.7463C28.745 22.5126 28.1013 21.3973 27.1406 20.6057L26.9443 20.4524Z" fill="#FA8B02" stroke="#FA8B02" stroke-width="0.5"/>
<path d="M42.5356 2.1394C50.6521 2.37491 57.4655 8.10612 59.1431 16.1541C60.7921 24.0618 56.6368 32.2705 49.2817 35.5222L49.2827 35.5232C49.13 35.591 48.9575 35.6947 48.7515 35.8123C48.5546 35.9246 48.3317 36.0467 48.1089 36.1238C47.8874 36.2004 47.6328 36.2445 47.3853 36.1638C47.128 36.0799 46.9293 35.8782 46.7896 35.571C46.6515 35.2674 46.6266 34.9884 46.7417 34.7468C46.8518 34.5159 47.0641 34.3757 47.2661 34.283C47.4703 34.1892 47.7069 34.1252 47.9116 34.0701C48.1285 34.0117 48.3046 33.9641 48.4321 33.905C55.2775 30.7202 58.9556 23.3414 57.27 16.0662C55.6164 8.91934 49.0887 3.85885 41.7017 3.98706C38.4336 4.04259 35.2661 5.12679 32.6489 7.08472C30.0318 9.04264 28.0975 11.7749 27.1216 14.8943V14.8953C27.026 15.1988 26.9329 15.5383 26.8247 15.8552C26.7961 15.9725 26.7447 16.0835 26.6724 16.1804C26.5938 16.2856 26.4931 16.3722 26.3774 16.4343C26.2617 16.4965 26.1336 16.5325 26.0024 16.5398C25.879 16.5467 25.7559 16.5271 25.6401 16.4841C25.3862 16.4091 25.1986 16.258 25.0981 16.0457C25.0021 15.8425 25.0002 15.6138 25.0483 15.3992H25.0474C25.1317 14.9814 25.2411 14.5689 25.3735 14.1638V14.1628C26.5312 10.6371 28.7809 7.57072 31.7964 5.40796C34.8119 3.24535 38.4373 2.09844 42.1479 2.13257L42.5356 2.1394Z" fill="#FA8B02" stroke="#FA8B02" stroke-width="0.5"/>
<path d="M41.9346 8.48523C42.1678 8.46987 42.3704 8.50574 42.5361 8.60144C42.7041 8.6985 42.8102 8.84264 42.874 8.99792C42.9943 9.29091 42.9745 9.65263 42.9512 9.91589L42.9502 9.92078C42.9088 10.2998 42.9929 10.465 43.0996 10.5604C43.2297 10.6765 43.4527 10.7476 43.8135 10.8094C45.5735 11.1102 46.72 12.1771 47.3516 13.7362L47.4717 14.0546V14.0555C47.5579 14.306 47.6915 14.667 47.6934 15.0009C47.6943 15.1751 47.6602 15.3605 47.5537 15.5272C47.4728 15.6538 47.359 15.757 47.2129 15.8348L47.0557 15.9042C46.8093 15.9946 46.5838 16.0152 46.3857 15.9413C46.1853 15.8664 46.0618 15.7129 45.9824 15.5604C45.9048 15.4111 45.8568 15.239 45.8193 15.0917C45.7991 15.0122 45.7818 14.9404 45.7646 14.8749L45.7109 14.6962C45.4088 13.8773 44.9034 13.2765 44.2451 12.9081C43.5851 12.5388 42.752 12.3925 41.7803 12.5184H41.7793C40.9103 12.6298 40.2217 12.9346 39.7324 13.3837C39.2452 13.831 38.9407 14.4352 38.8604 15.1757C38.7735 15.969 38.9456 16.6615 39.334 17.2147C39.7228 17.7682 40.3423 18.202 41.1846 18.452H41.1855C41.6131 18.5742 42.0531 18.66 42.5078 18.7567C42.9575 18.8524 43.418 18.9579 43.8633 19.118L44.2422 19.2684C46.0826 20.071 47.0792 21.6483 47.0723 23.6307L47.0586 24.036C46.9973 24.9662 46.7215 25.792 46.2314 26.4784C45.6713 27.2628 44.8429 27.8488 43.7754 28.2059H43.7744C43.4321 28.3192 43.2221 28.4285 43.0977 28.5692C42.9857 28.6959 42.9151 28.8821 42.9434 29.2274C42.9655 29.4606 43.0087 29.8203 42.9229 30.1219C42.8773 30.2818 42.7922 30.4412 42.6396 30.5614C42.4873 30.6814 42.2909 30.744 42.0566 30.7538C41.8245 30.7634 41.6238 30.7202 41.4619 30.6171C41.2985 30.5129 41.1985 30.363 41.1406 30.2059C41.0312 29.9088 41.0589 29.547 41.0859 29.288C41.124 28.9169 41.0581 28.7531 40.9648 28.6571C40.8828 28.5727 40.7483 28.5052 40.5244 28.4452L40.2695 28.3876C38.1677 27.9725 36.7141 26.4382 36.4141 24.5292V24.5282C36.3798 24.3077 36.3457 24.0384 36.417 23.8007C36.4549 23.6744 36.5231 23.5553 36.6328 23.4559C36.7412 23.3578 36.8785 23.2897 37.041 23.2469C37.3664 23.1614 37.6391 23.206 37.8525 23.3895C38.0426 23.553 38.1514 23.8014 38.2354 24.0282C38.6806 25.233 39.2432 25.9828 39.9668 26.3729C40.6903 26.763 41.6256 26.8205 42.8779 26.5282L42.8877 26.5262L43.1348 26.4677C43.7022 26.3054 44.208 25.9712 44.5811 25.5087C45.0074 24.9798 45.2327 24.3167 45.2168 23.6376V23.6307C45.2166 22.2662 44.3531 21.1373 42.8477 20.7137C42.4405 20.5995 42.0198 20.5229 41.584 20.4384C41.1532 20.3548 40.7096 20.2639 40.2803 20.119C38.1719 19.4074 36.9986 17.6959 37.0117 15.5145C37.012 14.4068 37.2878 13.4396 37.8486 12.662C38.4102 11.8832 39.2442 11.3132 40.3291 10.9794H40.3301C40.692 10.8685 40.8732 10.7423 40.9688 10.6014C41.0402 10.4961 41.0816 10.3561 41.0859 10.1493L41.0781 9.9198C41.0573 9.67423 41.0367 9.34376 41.1328 9.06433C41.1833 8.91771 41.2687 8.77527 41.4092 8.66687C41.5496 8.55848 41.7261 8.49914 41.9336 8.48523H41.9346Z" fill="#FA8B02" stroke="#FA8B02" stroke-width="0.5"/>
<path d="M12.5574 50.192C12.8731 50.1789 13.1883 50.2308 13.4832 50.3444C13.7782 50.458 14.0468 50.6315 14.2722 50.8531C14.4976 51.0748 14.6752 51.3404 14.7937 51.6334C14.9122 51.9265 14.9696 52.2412 14.9617 52.5573L14.9607 52.5563C14.9749 52.8758 14.9254 53.1951 14.8132 53.4948C14.6989 53.8 14.5232 54.0787 14.2966 54.3131C14.0702 54.5474 13.7979 54.7324 13.4968 54.8571C13.1968 54.9812 12.8742 55.042 12.5496 55.0367H12.5476L12.5457 55.0377V55.0367C11.1467 55.0345 10.1413 53.9505 10.1687 52.5289C10.1614 52.2165 10.2183 51.9055 10.3357 51.6158C10.4546 51.3228 10.6325 51.0571 10.8591 50.8365C11.0859 50.6158 11.3567 50.4445 11.6531 50.3336C11.9419 50.2256 12.2495 50.179 12.5574 50.193V50.192ZM12.6179 51.7965C12.331 51.7965 12.1391 51.8731 12.0183 51.986C11.8985 52.0978 11.816 52.2758 11.8054 52.5436C11.7946 52.8159 11.8603 53.0043 11.9666 53.1246C12.0709 53.2428 12.2459 53.3308 12.5281 53.3405L12.5427 53.3414L12.5564 53.3434C12.655 53.3581 12.756 53.3503 12.8513 53.3209C12.9467 53.2915 13.0349 53.2403 13.1082 53.1725C13.1812 53.1047 13.2385 53.021 13.2751 52.9283C13.3117 52.8356 13.3271 52.7358 13.3201 52.6364L13.3181 52.611L13.321 52.5865C13.334 52.4873 13.326 52.3863 13.2966 52.2906C13.2672 52.195 13.2175 52.1067 13.1511 52.0319C13.0847 51.957 13.0024 51.8976 12.9109 51.8571C12.8194 51.8165 12.72 51.7954 12.6199 51.7965H12.6179Z" fill="#FA8B02" stroke="#FA8B02" stroke-width="0.5"/>
</svg>
