<svg width="24" height="25" viewBox="0 0 24 25" fill="none" xmlns="http://www.w3.org/2000/svg">
<g opacity="0.8">
<path d="M11.9705 1.07031C14.3276 1.07031 16.6847 1.07031 19.0418 1.07031C19.9847 1.07031 20.8474 1.24592 21.3494 2.17815C21.5374 2.50073 21.6408 2.8656 21.65 3.23885C21.65 3.67137 21.65 4.10272 21.65 4.53525C21.65 5.35081 21.65 5.35081 22.4573 5.42506C23.6205 5.53113 24.3771 6.95717 23.8043 7.9778C23.7607 8.06611 23.6904 8.13852 23.6035 8.18485C23.5165 8.23118 23.4172 8.24911 23.3196 8.2361C23.2219 8.2231 23.1308 8.17982 23.059 8.11235C22.9872 8.04488 22.9383 7.95661 22.9193 7.85994C22.8845 7.64693 22.8726 7.43081 22.8839 7.21527C22.9098 6.67668 22.6482 6.47868 22.132 6.494C21.7784 6.50343 21.6264 6.6425 21.65 6.99135C21.6606 7.1481 21.65 7.30602 21.65 7.46277C21.65 11.4093 21.65 15.3559 21.65 19.3025C21.65 20.3691 21.4237 20.6826 20.3795 20.9654C20.0636 21.0503 19.9693 21.2117 19.9752 21.5028C19.9752 21.8564 19.987 22.21 19.967 22.5635C19.959 22.8807 19.8384 23.1847 19.6268 23.4212C19.4152 23.6576 19.1264 23.8111 18.812 23.854C18.2878 23.9398 17.7539 23.9498 17.2269 23.8835C16.3642 23.7763 15.954 23.3143 15.9305 22.428C15.921 22.0945 15.921 21.7598 15.9305 21.4262C15.9305 21.1304 15.7949 20.9961 15.5026 20.9961C13.1455 20.9961 10.7884 20.9961 8.43134 20.9961C8.10606 20.9961 7.96934 21.1434 7.97759 21.4675C7.98584 21.7916 7.98584 22.1357 7.97759 22.4693C7.94459 23.319 7.53564 23.7786 6.7024 23.8835C6.17566 23.9523 5.64172 23.9444 5.11725 23.8599C4.80265 23.8214 4.5118 23.6728 4.29614 23.4406C4.08047 23.2083 3.95386 22.9072 3.9387 22.5906C3.92921 22.473 3.92921 22.3547 3.9387 22.2371C3.99409 21.5429 4.00706 20.9654 3.05125 20.8016C2.40069 20.6837 2.25455 20.0332 2.25691 19.3873C2.26752 15.4404 2.25691 11.4911 2.25691 7.54763C2.25691 7.39088 2.2463 7.23295 2.25691 7.07621C2.28637 6.69907 2.17677 6.47868 1.73953 6.49518C1.33646 6.50932 1.03829 6.59771 1.0324 7.07385C1.03462 7.32854 1.02202 7.58314 0.994682 7.83637C0.983459 7.94793 0.930686 8.0512 0.846845 8.12565C0.763004 8.2001 0.654228 8.2403 0.542119 8.23826C0.482558 8.24526 0.422196 8.24017 0.364652 8.22328C0.307107 8.20639 0.253564 8.17806 0.207232 8.13998C0.1609 8.10191 0.122734 8.05487 0.09502 8.00168C0.0673062 7.9485 0.0506158 7.89027 0.0459493 7.83048C-0.0990124 6.69082 0.0105928 5.44156 1.72067 5.43095C2.14023 5.43095 2.26634 5.24238 2.2522 4.85346C2.23452 4.32311 2.23805 3.79276 2.2522 3.26359C2.28402 2.08504 3.03004 1.27302 4.19798 1.1316C4.51091 1.09474 4.82573 1.07624 5.14082 1.07621C7.41621 1.07228 9.69278 1.07031 11.9705 1.07031ZM11.954 5.34491C9.26339 5.34491 6.57158 5.34491 3.88095 5.34491C3.50382 5.34491 3.23864 5.37674 3.24454 5.86701C3.26339 7.55705 3.25632 9.24592 3.24454 10.9348C3.24454 11.266 3.38007 11.438 3.69946 11.5111C6.1367 12.0674 8.58572 12.5023 11.0913 12.5753C14.1367 12.6625 17.1184 12.23 20.0731 11.5394C20.4973 11.4404 20.6623 11.2589 20.6553 10.824C20.6376 9.23295 20.6246 7.64191 20.6612 6.05087C20.6741 5.46159 20.4537 5.33077 19.9081 5.33549C17.2575 5.35906 14.6058 5.34609 11.954 5.34609V5.34491ZM11.954 19.92C14.6435 19.92 17.3341 19.92 20.0236 19.92C20.5244 19.92 20.6541 19.6843 20.6612 19.2282C20.6682 18.7721 20.4914 18.5942 20.0377 18.6119C19.4879 18.638 18.9371 18.6341 18.3877 18.6001C17.9175 18.5673 17.4782 18.3542 17.1612 18.0054C16.8443 17.6565 16.6743 17.1988 16.6866 16.7276C16.6989 16.2565 16.8926 15.8082 17.2273 15.4764C17.562 15.1446 18.0119 14.9548 18.4832 14.9466C19.0524 14.9301 19.6217 14.9348 20.1909 14.9466C20.5138 14.9466 20.6553 14.8063 20.6505 14.4846C20.6435 14.0132 20.6258 13.5417 20.6576 13.0703C20.6918 12.5659 20.5574 12.4127 20.0294 12.5659C17.5427 13.2907 14.9817 13.5347 12.4066 13.5665C9.49203 13.603 6.60223 13.3485 3.78431 12.5459C3.41543 12.441 3.22686 12.4858 3.24807 12.9265C3.27164 13.4368 3.26339 13.9483 3.24807 14.4586C3.23982 14.8122 3.39421 14.9548 3.74188 14.9477C4.27223 14.936 4.80258 14.9383 5.33293 14.9477C6.35827 14.969 7.19739 15.7727 7.21861 16.7486C7.24336 17.7008 6.40187 18.5694 5.3895 18.613C4.86033 18.6366 4.3288 18.6331 3.79963 18.613C3.39893 18.6024 3.23629 18.7627 3.23982 19.1693C3.23982 19.7998 3.33057 19.913 3.99409 19.9142C6.6474 19.9228 9.29953 19.9271 11.9505 19.9271L11.954 19.92ZM11.9623 4.35022H14.2604C16.1827 4.35022 18.1061 4.35022 20.0283 4.35022C20.2699 4.35022 20.5468 4.41504 20.6423 4.0544C20.9263 2.95599 20.3158 2.1204 19.1809 2.11922C14.3536 2.11451 9.5266 2.11451 4.70005 2.11922C3.67471 2.11922 3.27636 2.52229 3.25161 3.53348C3.23157 4.3184 3.25161 4.34433 4.07659 4.34433L11.9623 4.35022ZM4.51148 17.57C4.78608 17.57 5.0595 17.57 5.33646 17.57C5.82674 17.57 6.10723 17.3261 6.14848 16.8334C6.1862 16.3679 5.89156 16.0084 5.38714 15.9707C4.95933 15.9354 4.5268 15.9542 4.09073 15.9542C3.24453 15.9542 3.24454 15.9542 3.24807 16.7875C3.24807 17.5547 3.26575 17.57 4.04006 17.5747L4.51148 17.57ZM19.2987 17.5641C20.7472 17.5712 20.7472 17.5712 20.6458 16.4021C20.6458 16.3632 20.6458 16.3243 20.6399 16.2842C20.6432 16.2398 20.6368 16.1953 20.6211 16.1537C20.6054 16.112 20.5808 16.0743 20.5491 16.0431C20.5173 16.012 20.4792 15.9881 20.4373 15.9731C20.3954 15.9582 20.3507 15.9525 20.3064 15.9566C19.6806 15.9566 19.0501 15.9248 18.4302 15.9837C17.9965 16.0238 17.7313 16.3302 17.7525 16.7969C17.7761 17.2836 18.0365 17.5523 18.535 17.5618C18.7896 17.57 19.0442 17.5629 19.2987 17.5629V17.5641ZM6.96758 21.8977C6.96758 20.9949 6.96758 20.9949 6.12491 20.9925C4.9994 20.9925 4.9994 20.9925 4.99586 21.7998C4.99586 22.8511 5.00883 22.87 5.95874 22.8711C6.93458 22.8735 6.96522 22.8429 6.96758 21.8977ZM17.9022 20.9878C16.931 20.9878 16.931 20.9878 16.931 21.8234C16.931 22.844 16.9523 22.8676 17.9281 22.8664C18.8815 22.8664 18.9039 22.8429 18.9028 21.8647C18.9028 20.9878 18.9028 20.9878 17.9022 20.9878Z" fill="#FA8B02"/>
<path d="M11.9199 18.5385C11.1338 18.5385 10.3489 18.5527 9.56279 18.5385C8.6883 18.5185 8.18153 18.0058 8.14853 17.1408C8.14028 16.9251 8.14264 16.7083 8.14853 16.4926C8.16739 15.5969 8.65531 15.0111 9.53804 14.9888C11.1464 14.9471 12.7571 14.9471 14.3701 14.9888C15.2528 15.0111 15.7419 15.5957 15.7596 16.4926C15.7596 16.7283 15.769 16.964 15.7596 17.1997C15.716 17.9964 15.2104 18.4961 14.4043 18.5409C14.3654 18.5409 14.3253 18.5409 14.2864 18.5409L11.9199 18.5385ZM12.0095 16.0447C11.2658 16.0447 10.5221 16.0577 9.77846 16.0447C9.27404 16.0329 9.13969 16.2934 9.14676 16.7413C9.15383 17.1667 9.17387 17.5391 9.74546 17.5368C11.2139 17.5305 12.682 17.5305 14.1497 17.5368C14.7189 17.5368 14.7461 17.1726 14.7519 16.7448C14.7519 16.2993 14.6341 16.0318 14.1238 16.0447C13.4202 16.0577 12.7142 16.0447 12.0095 16.0447Z" fill="#FA8B02"/>
</g>
</svg>
