<svg width="24" height="24" viewBox="0 0 24 24" fill="none" xmlns="http://www.w3.org/2000/svg">
<g clip-path="url(#clip0_1_3266)">
<path d="M10.1467 13.7598C11.5383 15.1716 13.2222 16.2616 15.08 16.9532L17.5933 14.9532C17.6678 14.9018 17.7562 14.8744 17.8467 14.8744C17.9371 14.8744 18.0255 14.9018 18.1 14.9532L22.7667 17.9598C22.9438 18.0663 23.0938 18.2126 23.2047 18.387C23.3157 18.5615 23.3845 18.7593 23.4059 18.9649C23.4272 19.1705 23.4004 19.3783 23.3277 19.5718C23.2549 19.7653 23.1382 19.9392 22.9867 20.0798L20.8 22.2398C20.4868 22.5492 20.102 22.7763 19.6797 22.9008C19.2574 23.0253 18.8109 23.0433 18.38 22.9532C14.0815 22.0654 10.1194 19.9862 6.94666 16.9532C3.84432 13.89 1.69751 9.99239 0.766663 5.73316C0.674707 5.30892 0.6939 4.86812 0.82238 4.45348C0.950861 4.03883 1.18427 3.66441 1.5 3.36649L3.76666 1.17983C3.90693 1.03568 4.07799 0.925143 4.26703 0.856478C4.45607 0.787813 4.65819 0.762805 4.85827 0.783325C5.05835 0.803846 5.25119 0.869364 5.42235 0.974973C5.59352 1.08058 5.73858 1.22355 5.84666 1.39316L8.95333 5.99983C9.00692 6.07216 9.03584 6.1598 9.03584 6.24983C9.03584 6.33985 9.00692 6.42749 8.95333 6.49983L6.90666 8.95983C7.61705 10.7805 8.72382 12.4201 10.1467 13.7598Z" fill="#FA8B02"/>
</g>
<defs>
<clipPath id="clip0_1_3266">
<rect width="24" height="24" fill="white"/>
</clipPath>
</defs>
</svg>
