<svg width="24" height="24" viewBox="0 0 24 24" fill="none" xmlns="http://www.w3.org/2000/svg">
<path d="M4.66667 2.83301C3.69421 2.83301 2.76157 3.21932 2.07394 3.90695C1.38631 4.59458 1 5.52721 1 6.49967V6.86818L12 12.7917L23 6.87001V6.49967C23 5.52721 22.6137 4.59458 21.9261 3.90695C21.2384 3.21932 20.3058 2.83301 19.3333 2.83301H4.66667ZM23 8.95084L12.4345 14.6397C12.301 14.7116 12.1517 14.7492 12 14.7492C11.8483 14.7492 11.699 14.7116 11.5655 14.6397L1 8.95084V17.4997C1 18.4721 1.38631 19.4048 2.07394 20.0924C2.76157 20.78 3.69421 21.1663 4.66667 21.1663H19.3333C20.3058 21.1663 21.2384 20.78 21.9261 20.0924C22.6137 19.4048 23 18.4721 23 17.4997V8.95084Z" fill="#FA8B02"/>
</svg>
