<svg width="24" height="24" viewBox="0 0 24 24" fill="none" xmlns="http://www.w3.org/2000/svg">
<path d="M12 23C10.4566 21.6835 9.02592 20.2402 7.72305 18.6852C5.76788 16.35 3.44611 12.8722 3.44611 9.55818C3.44526 7.86568 3.94652 6.21097 4.88645 4.80347C5.82638 3.39596 7.16274 2.29893 8.72638 1.6512C10.29 1.00348 12.0107 0.834177 13.6706 1.16473C15.3305 1.49527 16.855 2.31081 18.0513 3.50813C18.8477 4.30103 19.479 5.24401 19.9085 6.28249C20.3381 7.32098 20.5575 8.43435 20.5539 9.55818C20.5539 12.8722 18.2321 16.35 16.2769 18.6852C14.9741 20.2402 13.5434 21.6835 12 23ZM12 5.89222C11.0277 5.89222 10.0953 6.27846 9.40778 6.96596C8.72028 7.65346 8.33404 8.58591 8.33404 9.55818C8.33404 10.5304 8.72028 11.4629 9.40778 12.1504C10.0953 12.8379 11.0277 13.2241 12 13.2241C12.9723 13.2241 13.9047 12.8379 14.5922 12.1504C15.2797 11.4629 15.6659 10.5304 15.6659 9.55818C15.6659 8.58591 15.2797 7.65346 14.5922 6.96596C13.9047 6.27846 12.9723 5.89222 12 5.89222Z" fill="#FA8B02"/>
</svg>
