<svg width="40" height="28" viewBox="0 0 40 28" fill="none" xmlns="http://www.w3.org/2000/svg">
<g opacity="0.1" clip-path="url(#clip0_1_1836)">
<path d="M39.9963 9.99306C39.8573 18.5258 35.1779 25.1322 27.4481 27.6904C27.2628 27.7474 27.096 27.8045 26.9181 27.8543C25.8358 28.1637 24.9685 27.9077 24.4588 27.1323C23.9492 26.3569 24.0326 25.4471 24.7665 24.6036C26.1496 23.0318 27.322 21.2885 28.2542 19.4172C28.7732 18.3675 28.7787 18.3693 27.6983 18.0378C23.7954 16.837 21.1805 13.1056 21.2954 8.90091C21.4047 4.88959 24.3365 1.28899 28.3024 0.288921C30.2619 -0.216649 32.3344 -0.0656319 34.1987 0.718556C36.063 1.50274 37.6149 2.87629 38.6138 4.62622C39.57 6.25169 40.049 8.11089 39.9963 9.99306Z" fill="#FA8B02"/>
<path d="M18.7065 10.0316C18.5804 18.6418 13.7194 25.3715 5.87843 27.7897C5.31134 27.9739 4.75352 28.1047 4.16049 27.8929C2.81134 27.4103 2.4444 25.8227 3.45812 24.6495C4.91037 22.979 6.14392 21.1324 7.12936 19.1538C7.43514 18.5368 7.37584 18.2974 6.65123 18.0874C4.67571 17.5191 2.94805 16.3108 1.74289 14.6546C0.537741 12.9984 -0.075731 10.9894 1.50036e-06 8.94686C0.148259 4.7882 3.19126 1.13419 7.25167 0.237257C9.25404 -0.228495 11.3557 -0.0143282 13.2213 0.845587C15.0868 1.7055 16.6089 3.16161 17.5445 4.98158C18.3858 6.58758 18.7343 8.10334 18.7065 10.0316Z" fill="#FA8B02"/>
</g>
<defs>
<clipPath id="clip0_1_1836">
<rect width="40" height="28" fill="white"/>
</clipPath>
</defs>
</svg>
